<svg width="960" height="764" viewBox="0 0 960 764" fill="none" xmlns="http://www.w3.org/2000/svg">
<g opacity="0.3">
<path opacity="0.4" fill-rule="evenodd" clip-rule="evenodd" d="M338.539 3.14099L338.907 2.83554L339.228 3.19011L373.312 40.7995L373.384 40.8795L373.417 40.9822L383.969 73.8093L411.537 110.175L411.613 110.275L411.632 110.399L417.509 147.421L417.553 147.698L417.339 147.88L379.469 180.181L410.165 198.402L417.696 147.426L417.777 146.877L418.315 147.015L482.368 163.469L482.721 163.56L482.743 163.924L485.681 213.874L485.699 214.174L485.442 214.33L448.804 236.657L497.679 270.187L526.677 245.093L485.486 216.665L486.054 215.842L527.776 244.637L527.808 244.659L527.835 244.685L568.865 283.369L636.301 296.27L636.631 296.333L636.697 296.663L642.5 325.677L684.435 329.171L685.024 329.22L684.879 329.793L666.39 402.625H789.583H789.852L790 402.85L839.95 478.656L840.461 479.432H839.533H762.848L870.751 495.479L870.948 495.508L871.071 495.664L955.692 603.203L956.029 603.632L955.572 603.931L896.22 642.716L896.004 642.857L895.763 642.762L696.199 564.094L825.738 665.998L825.249 666.857L609.728 583.43L669.573 719.077L669.852 719.71L669.163 719.777L436.455 742.107L436.073 742.144L435.939 741.784L380.567 593.423L298.228 563.665L149.842 631L148.37 631.668L149.208 630.285L156.097 618.925L149.832 621.602L149.641 621.684L149.447 621.605L70.661 589.507L50.8113 677.079L50.5956 678.031L49.9491 677.3L0.586884 621.473L0.143402 620.972L0.750214 620.689L68.9147 588.917L39.6283 579.905L39.599 579.897L0.843658 570.503L1.07925 569.531L39.8639 578.933L39.8786 578.937L39.8931 578.941L70.4507 588.344L70.4718 588.35L70.4923 588.358L149.631 620.6L156.987 617.457L184.553 571.992L169.526 536.418L153.584 561.471L153.076 562.268L152.702 561.4L130.96 510.862L130.864 510.639L130.438 510.973L87.5398 456.322L88.1567 455.566L148.097 485.536L147.926 485.878L148.049 485.699L148.564 484.954L148.92 485.786L170.075 535.149L170.077 535.151L185.193 570.937L227.953 500.415L227.999 500.34L228.068 500.285L281.533 457.395L281.543 457.386L357.371 393.048H245.111L281.115 455.764L281.718 456.816L280.549 456.496L201.217 434.753L200.374 434.522L201 433.912L243.799 392.286L280.198 254.91L280.28 254.599L185.505 192.186L137.6 228.991L137.191 229.305L136.89 228.887L103.394 182.463L103.232 182.238L85.917 197.821L85.248 197.077L102.798 181.282L144.667 87.0779L144.41 86.6328L144.803 86.7725L145.066 86.1809L145.128 86.0413L145.257 85.9602L145.666 85.7039L145.54 85.7084L63.2712 88.6257L85.485 198.525L85.5063 198.631L85.4824 198.735L70.4669 264.747L73.2024 264.53L73.4991 264.506L73.6612 264.756L109.764 320.342V263.765H73.8296V262.765H110.032L139.264 228.271L140.13 228.72L110.748 342.135L109.764 342.01V323.205V323.168L60.0643 368.822L59.3878 368.086L109.614 321.948L72.9847 265.55L70.2346 265.768L54.3372 335.657L54.3364 335.66L36.1718 413.006L36.5438 413.322L87.0813 456.22L86.4342 456.982L36.305 414.431L28.3957 425.165L28.3093 425.282L28.1734 425.335L2.31693 435.325L1.95651 434.392L26.074 425.074L1.33823 413.569L1.75998 412.662L27.0288 424.415L26.8643 424.768L27.6771 424.454L35.8177 413.406L35.9732 413.195L35.1458 413.001L53.21 336.083L1.57718 338.983L1.52109 337.985L53.4456 335.068L69.1902 265.851L15.8234 270.078L30.1955 296.523L29.3168 297L14.7323 270.164L13.9292 270.228L13.9057 269.932L2.00522 266.686L2.26834 265.721L14.8479 269.152L69.4226 264.829L84.4835 198.618L62.1742 88.246L62.094 87.8489L62.4658 87.688L123.581 61.244L123.906 61.1033L124.147 61.3633L124.262 61.4885L124.148 61.2536L177.036 35.3972L177.317 35.2596L177.564 35.4529L199.198 52.4095L268.403 61.2068L268.907 61.2709L268.835 61.7736L265.351 86.1622L315.065 123.594L315.085 123.609L315.104 123.626L375.435 179.404L375.464 179.37L349.592 124.252L314.364 77.2816L314.264 77.1483V76.9816V23.5058V23.2709L314.445 23.121L338.539 3.14099ZM145.747 87.1086L145.847 86.884H230.143H264.647L314.444 124.378L315.336 125.203L233.188 118.212L145.747 87.1086ZM317.17 126.898L374.778 180.158L358.461 198.884L358.283 199.088L358.357 199.348L375.986 261.639L376.037 261.818L376.193 261.921L407.99 282.753L282.762 254.988L357.961 199.026L358.317 198.761L358.097 198.376L317.17 126.898ZM145.285 88.1484L175.52 140.478L172.704 146.878L103.731 181.645L145.285 88.1484ZM110.764 263.449V321.882L110.913 322.112L110.764 322.25V323.205V338.086L138.613 230.586L110.764 263.449ZM376.182 178.546L350.982 124.86L416.029 147.683L378.561 179.641L376.723 178.55L376.364 178.338L376.182 178.546ZM378.665 180.866L408.729 198.712H359.937L375.512 180.837L376.716 181.95L377.042 182.251L377.379 181.963L378.665 180.866ZM376.733 179.719L377.229 180.777L377.757 180.327L376.733 179.719ZM124.786 62.0546L177.193 36.4332L198.129 52.8424L146.296 85.3091L145.889 84.8692L124.786 62.0546ZM410.664 110.68L383.544 74.904L350.798 123.735L416.39 146.75L410.664 110.68ZM382.969 73.966L350 123.13L315.732 77.4389L380.603 74.5429L381.488 74.5034L380.997 73.7661L364.554 49.1024L341.364 7.03526L372.499 41.391L382.969 73.966ZM315.264 23.7408V74.5334L329.566 40.979L338.032 4.86074L315.264 23.7408ZM330.53 41.2493L339.048 4.90623L363.689 49.6037L363.699 49.6221L363.711 49.6396L379.673 73.5834L315.536 76.4467L330.503 41.3313L330.52 41.2915L330.53 41.2493ZM231.839 85.884H264.381L267.69 62.7182L231.839 85.884ZM230.224 85.7365L266.919 62.0261L200.304 53.5582L230.224 85.7365ZM228.996 85.884L198.913 53.5312L147.263 85.884H228.996ZM65.2953 87.5533L144.415 84.7477L123.653 62.3024L65.2953 87.5533ZM131.118 510.22L147.571 486.392L89.7016 457.457L131.118 510.22ZM185.673 572.074L228.486 501.466L290.364 560.453L197.525 600.131L185.673 572.074ZM196.605 600.524L185.033 573.129L158.565 616.782L196.605 600.524ZM197.914 601.052L198.871 603.318L197.95 603.707L196.995 601.445L157.675 618.25L150.902 629.421L296.881 563.178L291.274 561.152L197.914 601.052ZM244.897 392.048H358.549L359.02 391.648L410.134 284.253L281.041 255.63L244.897 392.048ZM376.898 261.187L410.602 283.269L411.275 281.855L411.3 281.802L411.337 281.757L447.206 237.209L359.603 200.079L376.898 261.187ZM609.158 582.137L609.006 581.792L693.086 562.917L822.495 664.719L609.158 582.137ZM668.121 718.263L608.41 582.92L606.644 582.236L605.597 581.83L529.786 653.733L668.121 718.263ZM606.715 581.282L606.007 581.441L606.884 580.61L607.309 580.718L607.357 580.532L607.6 581.083L606.715 581.282ZM636.138 463.617L606.851 578.468L449.5 478.018L636.138 463.617ZM635.506 462.663L449.868 476.987L534.063 407.014L635.506 462.663ZM446.436 478.255L446.479 478.252L359.778 534.521L345.363 458.407L446.41 477.928L446.436 478.255ZM607.739 579.034L636.896 464.693L692.439 562.038L608.594 580.86L607.87 579.217L607.809 579.079L607.739 579.034ZM637.279 463.189L637.294 463.131L755.175 479.311L693.266 561.47L637.251 463.299L637.279 463.189ZM531.493 405.605L533.12 406.497L448.45 476.865L427.082 392.546L532.023 405.593L531.493 405.605ZM601.672 404.047L535.709 405.511L571.405 351.967L601.672 404.047ZM602.246 405.035L535.244 406.522L634.871 461.175L602.246 405.035ZM603.388 405.009L636.178 461.433L664.531 405.886L665.101 403.64L603.388 405.009ZM602.814 404.022L663.935 402.665L572.453 350.396L572.023 351.04L602.814 404.022ZM571.463 350.077L571.562 349.928L499.032 371.192L535.042 404.709L570.846 351.004L570.546 350.488L571.411 349.986L571.463 350.077ZM573.067 348.683L573.353 348.928L680.531 329.849L642.042 326.642L642.038 326.642L536.09 316.906L573.067 348.683ZM534.69 315.396L533.707 314.175L530.784 278.809L568.529 286.399L568.726 285.418L530.699 277.772L528.098 246.307L568.285 284.197L568.327 284.237L568.378 284.266L600.784 302.932L534.69 315.396ZM532.736 314.563L532.819 315.572L480.601 300.901L498.736 272.365L498.762 272.37L532.736 314.563ZM479.595 300.619L497.685 272.153L496.836 271.983L495.837 271.782L496.608 271.114L496.897 270.864L448.259 237.496L412.591 281.794L479.595 300.619ZM532.589 312.786L500.294 272.678L529.764 278.604L532.589 312.786ZM498.981 271.08L498.531 270.772L527.075 246.071L529.678 277.567L499.314 271.461L499.087 271.179L499.041 271.122L498.981 271.08ZM410.341 199.712L445.451 235.379L361.299 199.712H410.341ZM447.651 236.188L411.372 199.333L447.496 179.592L484.358 213.82L447.651 236.188ZM484.61 212.689L481.775 164.497L436.984 168.466L447.913 178.614L484.61 212.689ZM436.032 167.546L479.297 163.712L419.602 148.378L436.032 167.546ZM418.525 148.657L435.44 168.392L435.459 168.414L435.479 168.433L446.724 178.874L411.192 198.292L418.525 148.657ZM244.134 393.355L202.324 434.019L279.644 455.211L244.134 393.355ZM571.451 284.882L633.527 296.758L602.294 302.648L571.451 284.882ZM603.625 303.414L635.814 297.344L641.377 325.16L603.625 303.414ZM639.854 325.437L602.115 303.699L536.973 315.983L639.854 325.437ZM666.136 403.625H788.815L755.892 478.135L665.566 405.874L666.136 403.625ZM665.168 406.837L754.359 478.19L636.972 462.078L665.168 406.837ZM694.004 562.153L756.112 479.729L894.259 641.094L694.004 562.153ZM896.041 641.638L757.337 479.623L870.408 496.439L954.568 603.393L896.041 641.638ZM756.854 478.432L789.669 404.166L838.604 478.432H756.854ZM665.425 402.365L683.719 330.298L573.6 349.9L665.425 402.365ZM571.149 348.352L534.998 317.285L461.566 334.231L571.149 348.352ZM570.312 349.253L460.218 335.066L498.181 370.4L570.312 349.253ZM447.482 477.116L426.124 392.838L345.887 457.49L447.482 477.116ZM447.724 478.636L360.761 535.075L453.098 551.486L447.724 478.636ZM448.732 478.715L454.114 551.666L605.022 578.486L448.732 478.715ZM667.241 718.956L529.006 654.473L437.805 740.973L667.241 718.956ZM381.801 593.868L436.245 739.744L458.169 621.468L381.801 593.868ZM381.342 592.639L456.365 619.753L360.577 537.001L381.342 592.639ZM380.109 592.194L359.144 536.022L299.533 563.073L380.109 592.194ZM282.169 458.166L231.088 499.143L344.485 457.336L425 392.46H360.384L358.504 393.566L358.438 393.454L282.18 458.158L282.169 458.166ZM426.125 391.46H362.084L457.686 335.224L426.125 391.46ZM457.754 334.024L360.258 391.374L411.855 282.962L457.754 334.024ZM497.065 370.727L427.454 391.135L458.863 335.17L497.065 370.727ZM413.25 283.018L458.669 333.546L479.035 301.5L413.25 283.018ZM480.04 301.783L533.114 316.694L459.814 333.609L480.04 301.783ZM497.916 371.52L428.872 391.761L533.66 404.789L497.916 371.52ZM343.694 458.693L230.039 500.596L310.794 521.962L343.694 458.693ZM344.512 459.288L311.785 522.224L358.787 534.659L344.512 459.288ZM298.186 562.586L357.941 535.47L311.312 523.133L291.966 560.338L298.186 562.586ZM310.322 522.871L291.122 559.793L230.134 501.656L310.322 522.871ZM453.174 552.515L361.129 536.156L458.15 619.974L453.174 552.515ZM528.812 653.279L460.171 621.259L605.603 580.446L528.812 653.279ZM454.19 552.695L605.171 579.529L459.191 620.495L454.19 552.695ZM528.032 654.018L459.112 621.868L437.179 740.188L528.032 654.018ZM50.0518 675.906L69.5907 589.705L1.77951 621.312L50.0518 675.906ZM228.723 612.104L208.743 630.908L208.058 630.18L228.038 611.376L228.723 612.104ZM147.637 632.161L70.6557 591.025L71.127 590.143L148.109 631.279L147.637 632.161ZM248.207 703.753L279.94 759.579L279.071 760.074L247.338 704.247L248.207 703.753ZM127.302 724.036L77.5219 706.467L77.1891 707.41L127.139 725.039L127.309 725.099L127.478 725.037L149.809 716.81L149.463 715.871L127.302 724.036ZM150.724 670.504V702.237H149.724V670.504H150.724ZM153.247 560.136L168.927 535.496L132.527 511.976L153.247 560.136ZM168.511 534.036L132.123 510.524L148.358 487.012L168.511 534.036ZM1.19882 379.976L32.4599 410.669L1.61227 406.743L1.48599 407.735L33.8065 411.848L35.2794 412.036L34.2199 410.996L1.89944 379.263L1.19882 379.976ZM315.636 126.232L234.999 119.37L259.213 135.329L259.803 135.717L259.241 136.144L253.318 140.645L282.157 254.191L357.008 198.488L315.636 126.232ZM281.054 253.912L252.454 141.302L186.347 191.543L281.054 253.912ZM138.54 227.008L184.93 191.367L175.722 146.477L173.475 147.609L138.54 227.008ZM233.042 119.277L179.069 144.872L257.524 135.413L233.042 119.277ZM176.679 146.168L257.168 136.463L252.45 140.049L185.812 190.694L176.679 146.168ZM146.635 88.4858L231.775 118.771L175.866 145.284L175.855 145.29L174.108 146.17L176.538 140.649L176.64 140.417L176.513 140.197L146.635 88.4858ZM137.19 227.593L172.071 148.317L104.548 182.353L137.19 227.593Z" fill="url(#paint0_linear_20_160)"/>
<g opacity="0.5">
<circle cx="3.52588" cy="3.52588" r="3.52588" transform="matrix(-1 0 0 1 283.032 756.888)" fill="url(#paint1_linear_20_160)"/>
<circle cx="3.52588" cy="3.52588" r="3.52588" transform="matrix(-1 0 0 1 252.474 701.65)" fill="url(#paint2_linear_20_160)"/>
<circle cx="3.52588" cy="3.52588" r="3.52588" transform="matrix(-1 0 0 1 212.514 626.431)" fill="url(#paint3_linear_20_160)"/>
<circle cx="3.52588" cy="3.52588" r="3.52588" transform="matrix(-1 0 0 1 230.143 608.801)" fill="url(#paint4_linear_20_160)"/>
<circle cx="3.52588" cy="3.52588" r="3.52588" transform="matrix(-1 0 0 1 153.749 668.741)" fill="url(#paint5_linear_20_160)"/>
<circle cx="3.52588" cy="3.52588" r="3.52588" transform="matrix(-1 0 0 1 153.749 701.65)" fill="url(#paint6_linear_20_160)"/>
<circle cx="3.52588" cy="3.52588" r="3.52588" transform="matrix(-1 0 0 1 154.925 712.227)" fill="url(#paint7_linear_20_160)"/>
<circle cx="3.52588" cy="3.52588" r="3.52588" transform="matrix(-1 0 0 1 131.419 720.454)" fill="url(#paint8_linear_20_160)"/>
<circle cx="3.52588" cy="3.52588" r="3.52588" transform="matrix(-1 0 0 1 53.8496 674.618)" fill="url(#paint9_linear_20_160)"/>
<circle cx="3.52588" cy="3.52588" r="3.52588" transform="matrix(-1 0 0 1 293.609 555.913)" fill="url(#paint10_linear_20_160)"/>
<circle cx="3.52588" cy="3.52588" r="3.52588" transform="matrix(-1 0 0 1 301.836 559.439)" fill="url(#paint11_linear_20_160)"/>
<circle cx="8.22705" cy="8.22705" r="8.22705" transform="matrix(-1 0 0 1 367.653 527.706)" fill="url(#paint12_linear_20_160)"/>
<circle cx="3.52588" cy="3.52588" r="3.52588" transform="matrix(-1 0 0 1 385.282 591.172)" fill="url(#paint13_linear_20_160)"/>
<circle cx="3.52588" cy="3.52588" r="3.52588" transform="matrix(-1 0 0 1 439.346 738.084)" fill="url(#paint14_linear_20_160)"/>
<circle cx="3.52588" cy="3.52588" r="3.52588" transform="matrix(-1 0 0 1 461.676 618.204)" fill="url(#paint15_linear_20_160)"/>
<circle cx="9.40234" cy="9.40234" r="9.40234" transform="matrix(-1 0 0 1 614.464 570.017)" fill="url(#paint16_linear_20_160)"/>
<circle cx="3.52588" cy="3.52588" r="3.52588" transform="matrix(-1 0 0 1 673.229 716.928)" fill="url(#paint17_linear_20_160)"/>
<circle cx="3.52588" cy="3.52588" r="3.52588" transform="matrix(-1 0 0 1 696.735 558.264)" fill="url(#paint18_linear_20_160)"/>
<circle cx="3.52588" cy="3.52588" r="3.52588" transform="matrix(-1 0 0 1 897.71 637.008)" fill="url(#paint19_linear_20_160)"/>
<circle cx="3.52588" cy="3.52588" r="3.52588" transform="matrix(-1 0 0 1 960 600.574)" fill="url(#paint20_linear_20_160)"/>
<circle cx="3.52588" cy="3.52588" r="3.52588" transform="matrix(-1 0 0 1 874.204 491.272)" fill="url(#paint21_linear_20_160)"/>
<circle cx="3.52588" cy="3.52588" r="3.52588" transform="matrix(-1 0 0 1 843.646 475.993)" fill="url(#paint22_linear_20_160)"/>
<circle cx="3.52588" cy="3.52588" r="3.52588" transform="matrix(-1 0 0 1 827.192 662.865)" fill="url(#paint23_linear_20_160)"/>
<circle cx="3.52588" cy="3.52588" r="3.52588" transform="matrix(-1 0 0 1 73.8296 586.471)" fill="url(#paint24_linear_20_160)"/>
<circle cx="3.52588" cy="3.52588" r="3.52588" transform="matrix(-1 0 0 1 233.669 495.973)" fill="url(#paint25_linear_20_160)"/>
<circle cx="3.52588" cy="3.52588" r="3.52588" transform="matrix(-1 0 0 1 151.399 626.431)" fill="url(#paint26_linear_20_160)"/>
<circle cx="3.52588" cy="3.52588" r="3.52588" transform="matrix(-1 0 0 1 153.749 615.853)" fill="url(#paint27_linear_20_160)"/>
<circle cx="3.52588" cy="3.52588" r="3.52588" transform="matrix(-1 0 0 1 199.586 598.224)" fill="url(#paint28_linear_20_160)"/>
<circle cx="3.52588" cy="3.52588" r="3.52588" transform="matrix(-1 0 0 1 189.008 568.841)" fill="url(#paint29_linear_20_160)"/>
<circle cx="3.52588" cy="3.52588" r="3.52588" transform="matrix(-1 0 0 1 172.554 532.407)" fill="url(#paint30_linear_20_160)"/>
<circle cx="3.52588" cy="3.52588" r="3.52588" transform="matrix(-1 0 0 1 157.275 559.439)" fill="url(#paint31_linear_20_160)"/>
<circle cx="3.52588" cy="3.52588" r="3.52588" transform="matrix(-1 0 0 1 134.945 507.726)" fill="url(#paint32_linear_20_160)"/>
<circle cx="3.52588" cy="3.52588" r="3.52588" transform="matrix(-1 0 0 1 151.399 483.045)" fill="url(#paint33_linear_20_160)"/>
<circle cx="3.52588" cy="3.52588" r="3.52588" transform="matrix(-1 0 0 1 91.459 453.663)" fill="url(#paint34_linear_20_160)"/>
<circle cx="3.52588" cy="3.52588" r="3.52588" transform="matrix(-1 0 0 1 38.5708 409.002)" fill="url(#paint35_linear_20_160)"/>
<circle cx="3.52588" cy="3.52588" r="3.52588" transform="matrix(-1 0 0 1 31.519 420.755)" fill="url(#paint36_linear_20_160)"/>
<circle cx="3.52588" cy="3.52588" r="3.52588" transform="matrix(-1 0 0 1 57.3755 331.432)" fill="url(#paint37_linear_20_160)"/>
<circle cx="3.52588" cy="3.52588" r="3.52588" transform="matrix(-1 0 0 1 112.614 317.329)" fill="url(#paint38_linear_20_160)"/>
<circle cx="3.52588" cy="3.52588" r="3.52588" transform="matrix(-1 0 0 1 114.965 259.74)" fill="url(#paint39_linear_20_160)"/>
<circle cx="3.52588" cy="3.52588" r="3.52588" transform="matrix(-1 0 0 1 141.997 224.481)" fill="url(#paint40_linear_20_160)"/>
<circle cx="3.52588" cy="3.52588" r="3.52588" transform="matrix(-1 0 0 1 89.1084 193.923)" fill="url(#paint41_linear_20_160)"/>
<circle cx="3.52588" cy="3.52588" r="3.52588" transform="matrix(-1 0 0 1 107.913 178.644)" fill="url(#paint42_linear_20_160)"/>
<circle cx="3.52588" cy="3.52588" r="3.52588" transform="matrix(-1 0 0 1 67.9531 83.4458)" fill="url(#paint43_linear_20_160)"/>
<circle cx="3.52588" cy="3.52588" r="3.52588" transform="matrix(-1 0 0 1 149.048 83.4458)" fill="url(#paint44_linear_20_160)"/>
<circle cx="3.52588" cy="3.52588" r="3.52588" transform="matrix(-1 0 0 1 127.893 58.7646)" fill="url(#paint45_linear_20_160)"/>
<circle cx="3.52588" cy="3.52588" r="3.52588" transform="matrix(-1 0 0 1 180.781 32.9082)" fill="url(#paint46_linear_20_160)"/>
<circle cx="3.52588" cy="3.52588" r="3.52588" transform="matrix(-1 0 0 1 201.936 49.3623)" fill="url(#paint47_linear_20_160)"/>
<circle cx="3.52588" cy="3.52588" r="3.52588" transform="matrix(-1 0 0 1 233.669 82.2705)" fill="url(#paint48_linear_20_160)"/>
<circle cx="3.52588" cy="3.52588" r="3.52588" transform="matrix(-1 0 0 1 271.279 58.7646)" fill="url(#paint49_linear_20_160)"/>
<circle cx="3.52588" cy="3.52588" r="3.52588" transform="matrix(-1 0 0 1 268.928 82.2705)" fill="url(#paint50_linear_20_160)"/>
<circle cx="3.52588" cy="3.52588" r="3.52588" transform="matrix(-1 0 0 1 319.466 121.055)" fill="url(#paint51_linear_20_160)"/>
<circle cx="3.52588" cy="3.52588" r="3.52588" transform="matrix(-1 0 0 1 362.951 195.099)" fill="url(#paint52_linear_20_160)"/>
<circle cx="3.52588" cy="3.52588" r="3.52588" transform="matrix(-1 0 0 1 380.581 176.294)" fill="url(#paint53_linear_20_160)"/>
<circle cx="3.52588" cy="3.52588" r="3.52588" transform="matrix(-1 0 0 1 414.664 195.099)" fill="url(#paint54_linear_20_160)"/>
<circle cx="3.52588" cy="3.52588" r="3.52588" transform="matrix(-1 0 0 1 421.716 143.386)" fill="url(#paint55_linear_20_160)"/>
<circle cx="3.52588" cy="3.52588" r="3.52588" transform="matrix(-1 0 0 1 414.664 108.127)" fill="url(#paint56_linear_20_160)"/>
<circle cx="3.52588" cy="3.52588" r="3.52588" transform="matrix(-1 0 0 1 386.457 70.5175)" fill="url(#paint57_linear_20_160)"/>
<circle cx="3.52588" cy="3.52588" r="3.52588" transform="matrix(-1 0 0 1 377.055 37.6094)" fill="url(#paint58_linear_20_160)"/>
<circle cx="3.52588" cy="3.52588" r="3.52588" transform="matrix(-1 0 0 1 367.653 45.8364)" fill="url(#paint59_linear_20_160)"/>
<circle cx="3.52588" cy="3.52588" r="3.52588" transform="matrix(-1 0 0 1 342.971 0)" fill="url(#paint60_linear_20_160)"/>
<circle cx="3.52588" cy="3.52588" r="3.52588" transform="matrix(-1 0 0 1 332.394 37.6094)" fill="url(#paint61_linear_20_160)"/>
<circle cx="3.52588" cy="3.52588" r="3.52588" transform="matrix(-1 0 0 1 318.29 19.98)" fill="url(#paint62_linear_20_160)"/>
<circle cx="3.52588" cy="3.52588" r="3.52588" transform="matrix(-1 0 0 1 319.466 72.8681)" fill="url(#paint63_linear_20_160)"/>
<circle cx="3.52588" cy="3.52588" r="3.52588" transform="matrix(-1 0 0 1 353.549 121.055)" fill="url(#paint64_linear_20_160)"/>
<circle cx="3.52588" cy="3.52588" r="3.52588" transform="matrix(-1 0 0 1 440.521 164.541)" fill="url(#paint65_linear_20_160)"/>
<circle cx="3.52588" cy="3.52588" r="3.52588" transform="matrix(-1 0 0 1 485.182 161.015)" fill="url(#paint66_linear_20_160)"/>
<circle cx="3.52588" cy="3.52588" r="3.52588" transform="matrix(-1 0 0 1 488.708 211.553)" fill="url(#paint67_linear_20_160)"/>
<circle cx="3.52588" cy="3.52588" r="3.52588" transform="matrix(-1 0 0 1 451.098 233.883)" fill="url(#paint68_linear_20_160)"/>
<circle cx="3.52588" cy="3.52588" r="3.52588" transform="matrix(-1 0 0 1 380.581 258.564)" fill="url(#paint69_linear_20_160)"/>
<circle cx="3.52588" cy="3.52588" r="3.52588" transform="matrix(-1 0 0 1 414.664 279.72)" fill="url(#paint70_linear_20_160)"/>
<circle cx="3.52588" cy="3.52588" r="3.52588" transform="matrix(-1 0 0 1 484.007 297.349)" fill="url(#paint71_linear_20_160)"/>
<circle cx="3.52588" cy="3.52588" r="3.52588" transform="matrix(-1 0 0 1 501.636 267.967)" fill="url(#paint72_linear_20_160)"/>
<circle cx="3.52588" cy="3.52588" r="3.52588" transform="matrix(-1 0 0 1 532.194 242.11)" fill="url(#paint73_linear_20_160)"/>
<circle cx="3.52588" cy="3.52588" r="3.52588" transform="matrix(-1 0 0 1 535.719 311.452)" fill="url(#paint74_linear_20_160)"/>
<circle cx="3.52588" cy="3.52588" r="3.52588" transform="matrix(-1 0 0 1 573.329 280.895)" fill="url(#paint75_linear_20_160)"/>
<circle cx="3.52588" cy="3.52588" r="3.52588" transform="matrix(-1 0 0 1 640.32 293.823)" fill="url(#paint76_linear_20_160)"/>
<circle cx="3.52588" cy="3.52588" r="3.52588" transform="matrix(-1 0 0 1 645.022 322.03)" fill="url(#paint77_linear_20_160)"/>
<circle cx="3.52588" cy="3.52588" r="3.52588" transform="matrix(-1 0 0 1 687.332 326.731)" fill="url(#paint78_linear_20_160)"/>
<circle cx="3.52588" cy="3.52588" r="3.52588" transform="matrix(-1 0 0 1 575.679 346.711)" fill="url(#paint79_linear_20_160)"/>
<circle cx="3.52588" cy="3.52588" r="3.52588" transform="matrix(-1 0 0 1 538.07 403.125)" fill="url(#paint80_linear_20_160)"/>
<circle cx="3.52588" cy="3.52588" r="3.52588" transform="matrix(-1 0 0 1 669.703 400.775)" fill="url(#paint81_linear_20_160)"/>
<circle cx="3.52588" cy="3.52588" r="3.52588" transform="matrix(-1 0 0 1 640.32 459.539)" fill="url(#paint82_linear_20_160)"/>
<circle cx="10.5776" cy="10.5776" r="10.5776" transform="matrix(-1 0 0 1 766.077 468.942)" fill="url(#paint83_linear_20_160)"/>
<circle cx="3.52588" cy="3.52588" r="3.52588" transform="matrix(-1 0 0 1 791.933 399.599)" fill="url(#paint84_linear_20_160)"/>
<circle cx="8.22705" cy="8.22705" r="8.22705" transform="matrix(-1 0 0 1 455.8 468.942)" fill="url(#paint85_linear_20_160)"/>
<circle cx="11.7529" cy="11.7529" r="11.7529" transform="matrix(-1 0 0 1 471.078 322.03)" fill="url(#paint86_linear_20_160)"/>
<circle cx="3.52588" cy="3.52588" r="3.52588" transform="matrix(-1 0 0 1 429.943 389.022)" fill="url(#paint87_linear_20_160)"/>
<circle cx="8.22705" cy="8.22705" r="8.22705" transform="matrix(-1 0 0 1 353.549 450.137)" fill="url(#paint88_linear_20_160)"/>
<circle cx="3.52588" cy="3.52588" r="3.52588" transform="matrix(-1 0 0 1 362.951 389.022)" fill="url(#paint89_linear_20_160)"/>
<circle cx="3.52588" cy="3.52588" r="3.52588" transform="matrix(-1 0 0 1 247.773 389.022)" fill="url(#paint90_linear_20_160)"/>
<circle cx="3.52588" cy="3.52588" r="3.52588" transform="matrix(-1 0 0 1 284.207 453.663)" fill="url(#paint91_linear_20_160)"/>
<circle cx="3.52588" cy="3.52588" r="3.52588" transform="matrix(-1 0 0 1 204.287 430.157)" fill="url(#paint92_linear_20_160)"/>
<circle cx="3.52588" cy="3.52588" r="3.52588" transform="matrix(-1 0 0 1 451.098 176.294)" fill="url(#paint93_linear_20_160)"/>
<circle cx="2.35058" cy="2.35058" r="2.35058" transform="matrix(-1 0 0 1 179.606 143.386)" fill="url(#paint94_linear_20_160)"/>
<circle cx="2.35058" cy="2.35058" r="2.35058" transform="matrix(-1 0 0 1 178.431 137.509)" fill="url(#paint95_linear_20_160)"/>
<circle cx="2.35058" cy="2.35058" r="2.35058" transform="matrix(-1 0 0 1 236.02 116.354)" fill="url(#paint96_linear_20_160)"/>
<circle cx="2.35058" cy="2.35058" r="2.35058" transform="matrix(-1 0 0 1 261.876 133.983)" fill="url(#paint97_linear_20_160)"/>
<circle cx="2.35058" cy="2.35058" r="2.35058" transform="matrix(-1 0 0 1 254.825 138.684)" fill="url(#paint98_linear_20_160)"/>
<circle cx="2.35058" cy="2.35058" r="2.35058" transform="matrix(-1 0 0 1 187.833 189.222)" fill="url(#paint99_linear_20_160)"/>
<circle cx="2.35058" cy="2.35058" r="2.35058" transform="matrix(-1 0 0 1 284.207 252.688)" fill="url(#paint100_linear_20_160)"/>
<circle cx="2.35058" cy="2.35058" r="2.35058" transform="matrix(-1 0 0 1 173.729 145.736)" fill="url(#paint101_linear_20_160)"/>
<circle cx="3.52588" cy="3.52588" r="3.52588" transform="matrix(-1 0 0 1 114.965 337.309)" fill="url(#paint102_linear_20_160)"/>
<circle cx="3.52588" cy="3.52588" r="3.52588" transform="matrix(-1 0 0 1 75.0049 259.74)" fill="url(#paint103_linear_20_160)"/>
<circle cx="3.52588" cy="3.52588" r="3.52588" transform="matrix(-1 0 0 1 19.7661 266.791)" fill="url(#paint104_linear_20_160)"/>
<circle cx="3.52588" cy="3.52588" r="3.52588" transform="matrix(-1 0 0 1 31.519 291.473)" fill="url(#paint105_linear_20_160)"/>
<circle cx="3.52588" cy="3.52588" r="3.52588" transform="matrix(-1 0 0 1 83.2319 704)" fill="url(#paint106_linear_20_160)"/>
</g>
</g>
<defs>
<linearGradient id="paint0_linear_20_160" x1="0.14337" y1="383.552" x2="956.029" y2="379.318" gradientUnits="userSpaceOnUse">
<stop stop-color="#188BFE"/>
<stop offset="1" stop-color="#188BFE" stop-opacity="0.3"/>
</linearGradient>
<linearGradient id="paint1_linear_20_160" x1="7.05175" y1="3.54541" x2="-4.99761e-05" y2="3.52067" gradientUnits="userSpaceOnUse">
<stop stop-color="#188BFE"/>
<stop offset="1" stop-color="#188BFE" stop-opacity="0.3"/>
</linearGradient>
<linearGradient id="paint2_linear_20_160" x1="7.05175" y1="3.54541" x2="-4.99761e-05" y2="3.52067" gradientUnits="userSpaceOnUse">
<stop stop-color="#188BFE"/>
<stop offset="1" stop-color="#188BFE" stop-opacity="0.3"/>
</linearGradient>
<linearGradient id="paint3_linear_20_160" x1="7.05175" y1="3.54541" x2="-4.99761e-05" y2="3.52067" gradientUnits="userSpaceOnUse">
<stop stop-color="#188BFE"/>
<stop offset="1" stop-color="#188BFE" stop-opacity="0.3"/>
</linearGradient>
<linearGradient id="paint4_linear_20_160" x1="7.05175" y1="3.54541" x2="-4.99761e-05" y2="3.52067" gradientUnits="userSpaceOnUse">
<stop stop-color="#188BFE"/>
<stop offset="1" stop-color="#188BFE" stop-opacity="0.3"/>
</linearGradient>
<linearGradient id="paint5_linear_20_160" x1="7.05175" y1="3.54541" x2="-4.99761e-05" y2="3.52067" gradientUnits="userSpaceOnUse">
<stop stop-color="#188BFE"/>
<stop offset="1" stop-color="#188BFE" stop-opacity="0.3"/>
</linearGradient>
<linearGradient id="paint6_linear_20_160" x1="7.05175" y1="3.54541" x2="-4.99761e-05" y2="3.52067" gradientUnits="userSpaceOnUse">
<stop stop-color="#188BFE"/>
<stop offset="1" stop-color="#188BFE" stop-opacity="0.3"/>
</linearGradient>
<linearGradient id="paint7_linear_20_160" x1="7.05175" y1="3.54541" x2="-4.99761e-05" y2="3.52067" gradientUnits="userSpaceOnUse">
<stop stop-color="#188BFE"/>
<stop offset="1" stop-color="#188BFE" stop-opacity="0.3"/>
</linearGradient>
<linearGradient id="paint8_linear_20_160" x1="7.05175" y1="3.54541" x2="-4.99761e-05" y2="3.52067" gradientUnits="userSpaceOnUse">
<stop stop-color="#188BFE"/>
<stop offset="1" stop-color="#188BFE" stop-opacity="0.3"/>
</linearGradient>
<linearGradient id="paint9_linear_20_160" x1="7.05175" y1="3.54541" x2="-4.99761e-05" y2="3.52067" gradientUnits="userSpaceOnUse">
<stop stop-color="#188BFE"/>
<stop offset="1" stop-color="#188BFE" stop-opacity="0.3"/>
</linearGradient>
<linearGradient id="paint10_linear_20_160" x1="7.05175" y1="3.54541" x2="-4.99761e-05" y2="3.52067" gradientUnits="userSpaceOnUse">
<stop stop-color="#188BFE"/>
<stop offset="1" stop-color="#188BFE" stop-opacity="0.3"/>
</linearGradient>
<linearGradient id="paint11_linear_20_160" x1="7.05175" y1="3.54541" x2="-4.99761e-05" y2="3.52067" gradientUnits="userSpaceOnUse">
<stop stop-color="#188BFE"/>
<stop offset="1" stop-color="#188BFE" stop-opacity="0.3"/>
</linearGradient>
<linearGradient id="paint12_linear_20_160" x1="16.4541" y1="8.27262" x2="-0.000116611" y2="8.21489" gradientUnits="userSpaceOnUse">
<stop stop-color="#188BFE"/>
<stop offset="1" stop-color="#188BFE" stop-opacity="0.3"/>
</linearGradient>
<linearGradient id="paint13_linear_20_160" x1="7.05175" y1="3.54541" x2="-4.99761e-05" y2="3.52067" gradientUnits="userSpaceOnUse">
<stop stop-color="#188BFE"/>
<stop offset="1" stop-color="#188BFE" stop-opacity="0.3"/>
</linearGradient>
<linearGradient id="paint14_linear_20_160" x1="7.05175" y1="3.54541" x2="-4.99761e-05" y2="3.52067" gradientUnits="userSpaceOnUse">
<stop stop-color="#188BFE"/>
<stop offset="1" stop-color="#188BFE" stop-opacity="0.3"/>
</linearGradient>
<linearGradient id="paint15_linear_20_160" x1="7.05175" y1="3.54541" x2="-4.99761e-05" y2="3.52067" gradientUnits="userSpaceOnUse">
<stop stop-color="#188BFE"/>
<stop offset="1" stop-color="#188BFE" stop-opacity="0.3"/>
</linearGradient>
<linearGradient id="paint16_linear_20_160" x1="18.8047" y1="9.45442" x2="-0.00013327" y2="9.38844" gradientUnits="userSpaceOnUse">
<stop stop-color="#188BFE"/>
<stop offset="1" stop-color="#188BFE" stop-opacity="0.3"/>
</linearGradient>
<linearGradient id="paint17_linear_20_160" x1="7.05175" y1="3.54541" x2="-4.99761e-05" y2="3.52067" gradientUnits="userSpaceOnUse">
<stop stop-color="#188BFE"/>
<stop offset="1" stop-color="#188BFE" stop-opacity="0.3"/>
</linearGradient>
<linearGradient id="paint18_linear_20_160" x1="7.05175" y1="3.54541" x2="-4.99761e-05" y2="3.52067" gradientUnits="userSpaceOnUse">
<stop stop-color="#188BFE"/>
<stop offset="1" stop-color="#188BFE" stop-opacity="0.3"/>
</linearGradient>
<linearGradient id="paint19_linear_20_160" x1="7.05175" y1="3.54541" x2="-4.99761e-05" y2="3.52067" gradientUnits="userSpaceOnUse">
<stop stop-color="#188BFE"/>
<stop offset="1" stop-color="#188BFE" stop-opacity="0.3"/>
</linearGradient>
<linearGradient id="paint20_linear_20_160" x1="7.05175" y1="3.54541" x2="-4.99761e-05" y2="3.52067" gradientUnits="userSpaceOnUse">
<stop stop-color="#188BFE"/>
<stop offset="1" stop-color="#188BFE" stop-opacity="0.3"/>
</linearGradient>
<linearGradient id="paint21_linear_20_160" x1="7.05175" y1="3.54541" x2="-4.99761e-05" y2="3.52067" gradientUnits="userSpaceOnUse">
<stop stop-color="#188BFE"/>
<stop offset="1" stop-color="#188BFE" stop-opacity="0.3"/>
</linearGradient>
<linearGradient id="paint22_linear_20_160" x1="7.05175" y1="3.54541" x2="-4.99761e-05" y2="3.52067" gradientUnits="userSpaceOnUse">
<stop stop-color="#188BFE"/>
<stop offset="1" stop-color="#188BFE" stop-opacity="0.3"/>
</linearGradient>
<linearGradient id="paint23_linear_20_160" x1="7.05175" y1="3.54541" x2="-4.99761e-05" y2="3.52067" gradientUnits="userSpaceOnUse">
<stop stop-color="#188BFE"/>
<stop offset="1" stop-color="#188BFE" stop-opacity="0.3"/>
</linearGradient>
<linearGradient id="paint24_linear_20_160" x1="7.05175" y1="3.54541" x2="-4.99761e-05" y2="3.52067" gradientUnits="userSpaceOnUse">
<stop stop-color="#188BFE"/>
<stop offset="1" stop-color="#188BFE" stop-opacity="0.3"/>
</linearGradient>
<linearGradient id="paint25_linear_20_160" x1="7.05175" y1="3.54541" x2="-4.99761e-05" y2="3.52067" gradientUnits="userSpaceOnUse">
<stop stop-color="#188BFE"/>
<stop offset="1" stop-color="#188BFE" stop-opacity="0.3"/>
</linearGradient>
<linearGradient id="paint26_linear_20_160" x1="7.05175" y1="3.54541" x2="-4.99761e-05" y2="3.52067" gradientUnits="userSpaceOnUse">
<stop stop-color="#188BFE"/>
<stop offset="1" stop-color="#188BFE" stop-opacity="0.3"/>
</linearGradient>
<linearGradient id="paint27_linear_20_160" x1="7.05175" y1="3.54541" x2="-4.99761e-05" y2="3.52067" gradientUnits="userSpaceOnUse">
<stop stop-color="#188BFE"/>
<stop offset="1" stop-color="#188BFE" stop-opacity="0.3"/>
</linearGradient>
<linearGradient id="paint28_linear_20_160" x1="7.05175" y1="3.54541" x2="-4.99761e-05" y2="3.52067" gradientUnits="userSpaceOnUse">
<stop stop-color="#188BFE"/>
<stop offset="1" stop-color="#188BFE" stop-opacity="0.3"/>
</linearGradient>
<linearGradient id="paint29_linear_20_160" x1="7.05175" y1="3.54541" x2="-4.99761e-05" y2="3.52067" gradientUnits="userSpaceOnUse">
<stop stop-color="#188BFE"/>
<stop offset="1" stop-color="#188BFE" stop-opacity="0.3"/>
</linearGradient>
<linearGradient id="paint30_linear_20_160" x1="7.05175" y1="3.54541" x2="-4.99761e-05" y2="3.52067" gradientUnits="userSpaceOnUse">
<stop stop-color="#188BFE"/>
<stop offset="1" stop-color="#188BFE" stop-opacity="0.3"/>
</linearGradient>
<linearGradient id="paint31_linear_20_160" x1="7.05175" y1="3.54541" x2="-4.99761e-05" y2="3.52067" gradientUnits="userSpaceOnUse">
<stop stop-color="#188BFE"/>
<stop offset="1" stop-color="#188BFE" stop-opacity="0.3"/>
</linearGradient>
<linearGradient id="paint32_linear_20_160" x1="7.05175" y1="3.54541" x2="-4.99761e-05" y2="3.52067" gradientUnits="userSpaceOnUse">
<stop stop-color="#188BFE"/>
<stop offset="1" stop-color="#188BFE" stop-opacity="0.3"/>
</linearGradient>
<linearGradient id="paint33_linear_20_160" x1="7.05175" y1="3.54541" x2="-4.99761e-05" y2="3.52067" gradientUnits="userSpaceOnUse">
<stop stop-color="#188BFE"/>
<stop offset="1" stop-color="#188BFE" stop-opacity="0.3"/>
</linearGradient>
<linearGradient id="paint34_linear_20_160" x1="7.05175" y1="3.54541" x2="-4.99761e-05" y2="3.52067" gradientUnits="userSpaceOnUse">
<stop stop-color="#188BFE"/>
<stop offset="1" stop-color="#188BFE" stop-opacity="0.3"/>
</linearGradient>
<linearGradient id="paint35_linear_20_160" x1="7.05175" y1="3.54541" x2="-4.99761e-05" y2="3.52067" gradientUnits="userSpaceOnUse">
<stop stop-color="#188BFE"/>
<stop offset="1" stop-color="#188BFE" stop-opacity="0.3"/>
</linearGradient>
<linearGradient id="paint36_linear_20_160" x1="7.05175" y1="3.54541" x2="-4.99761e-05" y2="3.52067" gradientUnits="userSpaceOnUse">
<stop stop-color="#188BFE"/>
<stop offset="1" stop-color="#188BFE" stop-opacity="0.3"/>
</linearGradient>
<linearGradient id="paint37_linear_20_160" x1="7.05175" y1="3.54541" x2="-4.99761e-05" y2="3.52067" gradientUnits="userSpaceOnUse">
<stop stop-color="#188BFE"/>
<stop offset="1" stop-color="#188BFE" stop-opacity="0.3"/>
</linearGradient>
<linearGradient id="paint38_linear_20_160" x1="7.05175" y1="3.54541" x2="-4.99761e-05" y2="3.52067" gradientUnits="userSpaceOnUse">
<stop stop-color="#188BFE"/>
<stop offset="1" stop-color="#188BFE" stop-opacity="0.3"/>
</linearGradient>
<linearGradient id="paint39_linear_20_160" x1="7.05175" y1="3.54541" x2="-4.99761e-05" y2="3.52067" gradientUnits="userSpaceOnUse">
<stop stop-color="#188BFE"/>
<stop offset="1" stop-color="#188BFE" stop-opacity="0.3"/>
</linearGradient>
<linearGradient id="paint40_linear_20_160" x1="7.05175" y1="3.54541" x2="-4.99761e-05" y2="3.52067" gradientUnits="userSpaceOnUse">
<stop stop-color="#188BFE"/>
<stop offset="1" stop-color="#188BFE" stop-opacity="0.3"/>
</linearGradient>
<linearGradient id="paint41_linear_20_160" x1="7.05175" y1="3.54541" x2="-4.99761e-05" y2="3.52067" gradientUnits="userSpaceOnUse">
<stop stop-color="#188BFE"/>
<stop offset="1" stop-color="#188BFE" stop-opacity="0.3"/>
</linearGradient>
<linearGradient id="paint42_linear_20_160" x1="7.05175" y1="3.54541" x2="-4.99761e-05" y2="3.52067" gradientUnits="userSpaceOnUse">
<stop stop-color="#188BFE"/>
<stop offset="1" stop-color="#188BFE" stop-opacity="0.3"/>
</linearGradient>
<linearGradient id="paint43_linear_20_160" x1="7.05175" y1="3.54541" x2="-4.99761e-05" y2="3.52067" gradientUnits="userSpaceOnUse">
<stop stop-color="#188BFE"/>
<stop offset="1" stop-color="#188BFE" stop-opacity="0.3"/>
</linearGradient>
<linearGradient id="paint44_linear_20_160" x1="7.05175" y1="3.54541" x2="-4.99761e-05" y2="3.52067" gradientUnits="userSpaceOnUse">
<stop stop-color="#188BFE"/>
<stop offset="1" stop-color="#188BFE" stop-opacity="0.3"/>
</linearGradient>
<linearGradient id="paint45_linear_20_160" x1="7.05175" y1="3.54541" x2="-4.99761e-05" y2="3.52067" gradientUnits="userSpaceOnUse">
<stop stop-color="#188BFE"/>
<stop offset="1" stop-color="#188BFE" stop-opacity="0.3"/>
</linearGradient>
<linearGradient id="paint46_linear_20_160" x1="7.05175" y1="3.54541" x2="-4.99761e-05" y2="3.52067" gradientUnits="userSpaceOnUse">
<stop stop-color="#188BFE"/>
<stop offset="1" stop-color="#188BFE" stop-opacity="0.3"/>
</linearGradient>
<linearGradient id="paint47_linear_20_160" x1="7.05175" y1="3.54541" x2="-4.99761e-05" y2="3.52067" gradientUnits="userSpaceOnUse">
<stop stop-color="#188BFE"/>
<stop offset="1" stop-color="#188BFE" stop-opacity="0.3"/>
</linearGradient>
<linearGradient id="paint48_linear_20_160" x1="7.05175" y1="3.54541" x2="-4.99761e-05" y2="3.52067" gradientUnits="userSpaceOnUse">
<stop stop-color="#188BFE"/>
<stop offset="1" stop-color="#188BFE" stop-opacity="0.3"/>
</linearGradient>
<linearGradient id="paint49_linear_20_160" x1="7.05175" y1="3.54541" x2="-4.99761e-05" y2="3.52067" gradientUnits="userSpaceOnUse">
<stop stop-color="#188BFE"/>
<stop offset="1" stop-color="#188BFE" stop-opacity="0.3"/>
</linearGradient>
<linearGradient id="paint50_linear_20_160" x1="7.05175" y1="3.54541" x2="-4.99761e-05" y2="3.52067" gradientUnits="userSpaceOnUse">
<stop stop-color="#188BFE"/>
<stop offset="1" stop-color="#188BFE" stop-opacity="0.3"/>
</linearGradient>
<linearGradient id="paint51_linear_20_160" x1="7.05175" y1="3.54541" x2="-4.99761e-05" y2="3.52067" gradientUnits="userSpaceOnUse">
<stop stop-color="#188BFE"/>
<stop offset="1" stop-color="#188BFE" stop-opacity="0.3"/>
</linearGradient>
<linearGradient id="paint52_linear_20_160" x1="7.05175" y1="3.54541" x2="-4.99761e-05" y2="3.52067" gradientUnits="userSpaceOnUse">
<stop stop-color="#188BFE"/>
<stop offset="1" stop-color="#188BFE" stop-opacity="0.3"/>
</linearGradient>
<linearGradient id="paint53_linear_20_160" x1="7.05175" y1="3.54541" x2="-4.99761e-05" y2="3.52067" gradientUnits="userSpaceOnUse">
<stop stop-color="#188BFE"/>
<stop offset="1" stop-color="#188BFE" stop-opacity="0.3"/>
</linearGradient>
<linearGradient id="paint54_linear_20_160" x1="7.05175" y1="3.54541" x2="-4.99761e-05" y2="3.52067" gradientUnits="userSpaceOnUse">
<stop stop-color="#188BFE"/>
<stop offset="1" stop-color="#188BFE" stop-opacity="0.3"/>
</linearGradient>
<linearGradient id="paint55_linear_20_160" x1="7.05175" y1="3.54541" x2="-4.99761e-05" y2="3.52067" gradientUnits="userSpaceOnUse">
<stop stop-color="#188BFE"/>
<stop offset="1" stop-color="#188BFE" stop-opacity="0.3"/>
</linearGradient>
<linearGradient id="paint56_linear_20_160" x1="7.05175" y1="3.54541" x2="-4.99761e-05" y2="3.52067" gradientUnits="userSpaceOnUse">
<stop stop-color="#188BFE"/>
<stop offset="1" stop-color="#188BFE" stop-opacity="0.3"/>
</linearGradient>
<linearGradient id="paint57_linear_20_160" x1="7.05175" y1="3.54541" x2="-4.99761e-05" y2="3.52067" gradientUnits="userSpaceOnUse">
<stop stop-color="#188BFE"/>
<stop offset="1" stop-color="#188BFE" stop-opacity="0.3"/>
</linearGradient>
<linearGradient id="paint58_linear_20_160" x1="7.05175" y1="3.54541" x2="-4.99761e-05" y2="3.52067" gradientUnits="userSpaceOnUse">
<stop stop-color="#188BFE"/>
<stop offset="1" stop-color="#188BFE" stop-opacity="0.3"/>
</linearGradient>
<linearGradient id="paint59_linear_20_160" x1="7.05175" y1="3.54541" x2="-4.99761e-05" y2="3.52067" gradientUnits="userSpaceOnUse">
<stop stop-color="#188BFE"/>
<stop offset="1" stop-color="#188BFE" stop-opacity="0.3"/>
</linearGradient>
<linearGradient id="paint60_linear_20_160" x1="7.05175" y1="3.54541" x2="-4.99761e-05" y2="3.52067" gradientUnits="userSpaceOnUse">
<stop stop-color="#188BFE"/>
<stop offset="1" stop-color="#188BFE" stop-opacity="0.3"/>
</linearGradient>
<linearGradient id="paint61_linear_20_160" x1="7.05175" y1="3.54541" x2="-4.99761e-05" y2="3.52067" gradientUnits="userSpaceOnUse">
<stop stop-color="#188BFE"/>
<stop offset="1" stop-color="#188BFE" stop-opacity="0.3"/>
</linearGradient>
<linearGradient id="paint62_linear_20_160" x1="7.05175" y1="3.54541" x2="-4.99761e-05" y2="3.52067" gradientUnits="userSpaceOnUse">
<stop stop-color="#188BFE"/>
<stop offset="1" stop-color="#188BFE" stop-opacity="0.3"/>
</linearGradient>
<linearGradient id="paint63_linear_20_160" x1="7.05175" y1="3.54541" x2="-4.99761e-05" y2="3.52067" gradientUnits="userSpaceOnUse">
<stop stop-color="#188BFE"/>
<stop offset="1" stop-color="#188BFE" stop-opacity="0.3"/>
</linearGradient>
<linearGradient id="paint64_linear_20_160" x1="7.05175" y1="3.54541" x2="-4.99761e-05" y2="3.52067" gradientUnits="userSpaceOnUse">
<stop stop-color="#188BFE"/>
<stop offset="1" stop-color="#188BFE" stop-opacity="0.3"/>
</linearGradient>
<linearGradient id="paint65_linear_20_160" x1="7.05175" y1="3.54541" x2="-4.99761e-05" y2="3.52067" gradientUnits="userSpaceOnUse">
<stop stop-color="#188BFE"/>
<stop offset="1" stop-color="#188BFE" stop-opacity="0.3"/>
</linearGradient>
<linearGradient id="paint66_linear_20_160" x1="7.05175" y1="3.54541" x2="-4.99761e-05" y2="3.52067" gradientUnits="userSpaceOnUse">
<stop stop-color="#188BFE"/>
<stop offset="1" stop-color="#188BFE" stop-opacity="0.3"/>
</linearGradient>
<linearGradient id="paint67_linear_20_160" x1="7.05175" y1="3.54541" x2="-4.99761e-05" y2="3.52067" gradientUnits="userSpaceOnUse">
<stop stop-color="#188BFE"/>
<stop offset="1" stop-color="#188BFE" stop-opacity="0.3"/>
</linearGradient>
<linearGradient id="paint68_linear_20_160" x1="7.05175" y1="3.54541" x2="-4.99761e-05" y2="3.52067" gradientUnits="userSpaceOnUse">
<stop stop-color="#188BFE"/>
<stop offset="1" stop-color="#188BFE" stop-opacity="0.3"/>
</linearGradient>
<linearGradient id="paint69_linear_20_160" x1="7.05175" y1="3.54541" x2="-4.99761e-05" y2="3.52067" gradientUnits="userSpaceOnUse">
<stop stop-color="#188BFE"/>
<stop offset="1" stop-color="#188BFE" stop-opacity="0.3"/>
</linearGradient>
<linearGradient id="paint70_linear_20_160" x1="7.05175" y1="3.54541" x2="-4.99761e-05" y2="3.52067" gradientUnits="userSpaceOnUse">
<stop stop-color="#188BFE"/>
<stop offset="1" stop-color="#188BFE" stop-opacity="0.3"/>
</linearGradient>
<linearGradient id="paint71_linear_20_160" x1="7.05175" y1="3.54541" x2="-4.99761e-05" y2="3.52067" gradientUnits="userSpaceOnUse">
<stop stop-color="#188BFE"/>
<stop offset="1" stop-color="#188BFE" stop-opacity="0.3"/>
</linearGradient>
<linearGradient id="paint72_linear_20_160" x1="7.05175" y1="3.54541" x2="-4.99761e-05" y2="3.52067" gradientUnits="userSpaceOnUse">
<stop stop-color="#188BFE"/>
<stop offset="1" stop-color="#188BFE" stop-opacity="0.3"/>
</linearGradient>
<linearGradient id="paint73_linear_20_160" x1="7.05175" y1="3.54541" x2="-4.99761e-05" y2="3.52067" gradientUnits="userSpaceOnUse">
<stop stop-color="#188BFE"/>
<stop offset="1" stop-color="#188BFE" stop-opacity="0.3"/>
</linearGradient>
<linearGradient id="paint74_linear_20_160" x1="7.05175" y1="3.54541" x2="-4.99761e-05" y2="3.52067" gradientUnits="userSpaceOnUse">
<stop stop-color="#188BFE"/>
<stop offset="1" stop-color="#188BFE" stop-opacity="0.3"/>
</linearGradient>
<linearGradient id="paint75_linear_20_160" x1="7.05175" y1="3.54541" x2="-4.99761e-05" y2="3.52067" gradientUnits="userSpaceOnUse">
<stop stop-color="#188BFE"/>
<stop offset="1" stop-color="#188BFE" stop-opacity="0.3"/>
</linearGradient>
<linearGradient id="paint76_linear_20_160" x1="7.05175" y1="3.54541" x2="-4.99761e-05" y2="3.52067" gradientUnits="userSpaceOnUse">
<stop stop-color="#188BFE"/>
<stop offset="1" stop-color="#188BFE" stop-opacity="0.3"/>
</linearGradient>
<linearGradient id="paint77_linear_20_160" x1="7.05175" y1="3.54541" x2="-4.99761e-05" y2="3.52067" gradientUnits="userSpaceOnUse">
<stop stop-color="#188BFE"/>
<stop offset="1" stop-color="#188BFE" stop-opacity="0.3"/>
</linearGradient>
<linearGradient id="paint78_linear_20_160" x1="7.05175" y1="3.54541" x2="-4.99761e-05" y2="3.52067" gradientUnits="userSpaceOnUse">
<stop stop-color="#188BFE"/>
<stop offset="1" stop-color="#188BFE" stop-opacity="0.3"/>
</linearGradient>
<linearGradient id="paint79_linear_20_160" x1="7.05175" y1="3.54541" x2="-4.99761e-05" y2="3.52067" gradientUnits="userSpaceOnUse">
<stop stop-color="#188BFE"/>
<stop offset="1" stop-color="#188BFE" stop-opacity="0.3"/>
</linearGradient>
<linearGradient id="paint80_linear_20_160" x1="7.05175" y1="3.54541" x2="-4.99761e-05" y2="3.52067" gradientUnits="userSpaceOnUse">
<stop stop-color="#188BFE"/>
<stop offset="1" stop-color="#188BFE" stop-opacity="0.3"/>
</linearGradient>
<linearGradient id="paint81_linear_20_160" x1="7.05175" y1="3.54541" x2="-4.99761e-05" y2="3.52067" gradientUnits="userSpaceOnUse">
<stop stop-color="#188BFE"/>
<stop offset="1" stop-color="#188BFE" stop-opacity="0.3"/>
</linearGradient>
<linearGradient id="paint82_linear_20_160" x1="7.05175" y1="3.54541" x2="-4.99761e-05" y2="3.52067" gradientUnits="userSpaceOnUse">
<stop stop-color="#188BFE"/>
<stop offset="1" stop-color="#188BFE" stop-opacity="0.3"/>
</linearGradient>
<linearGradient id="paint83_linear_20_160" x1="21.1553" y1="10.6362" x2="-0.000149928" y2="10.562" gradientUnits="userSpaceOnUse">
<stop stop-color="#188BFE"/>
<stop offset="1" stop-color="#188BFE" stop-opacity="0.3"/>
</linearGradient>
<linearGradient id="paint84_linear_20_160" x1="7.05175" y1="3.54541" x2="-4.99761e-05" y2="3.52067" gradientUnits="userSpaceOnUse">
<stop stop-color="#188BFE"/>
<stop offset="1" stop-color="#188BFE" stop-opacity="0.3"/>
</linearGradient>
<linearGradient id="paint85_linear_20_160" x1="16.4541" y1="8.27262" x2="-0.000116611" y2="8.21489" gradientUnits="userSpaceOnUse">
<stop stop-color="#188BFE"/>
<stop offset="1" stop-color="#188BFE" stop-opacity="0.3"/>
</linearGradient>
<linearGradient id="paint86_linear_20_160" x1="23.5058" y1="11.818" x2="-0.000166587" y2="11.7356" gradientUnits="userSpaceOnUse">
<stop stop-color="#188BFE"/>
<stop offset="1" stop-color="#188BFE" stop-opacity="0.3"/>
</linearGradient>
<linearGradient id="paint87_linear_20_160" x1="7.05175" y1="3.54541" x2="-4.99761e-05" y2="3.52067" gradientUnits="userSpaceOnUse">
<stop stop-color="#188BFE"/>
<stop offset="1" stop-color="#188BFE" stop-opacity="0.3"/>
</linearGradient>
<linearGradient id="paint88_linear_20_160" x1="16.4541" y1="8.27262" x2="-0.000116611" y2="8.21489" gradientUnits="userSpaceOnUse">
<stop stop-color="#188BFE"/>
<stop offset="1" stop-color="#188BFE" stop-opacity="0.3"/>
</linearGradient>
<linearGradient id="paint89_linear_20_160" x1="7.05175" y1="3.54541" x2="-4.99761e-05" y2="3.52067" gradientUnits="userSpaceOnUse">
<stop stop-color="#188BFE"/>
<stop offset="1" stop-color="#188BFE" stop-opacity="0.3"/>
</linearGradient>
<linearGradient id="paint90_linear_20_160" x1="7.05175" y1="3.54541" x2="-4.99761e-05" y2="3.52067" gradientUnits="userSpaceOnUse">
<stop stop-color="#188BFE"/>
<stop offset="1" stop-color="#188BFE" stop-opacity="0.3"/>
</linearGradient>
<linearGradient id="paint91_linear_20_160" x1="7.05175" y1="3.54541" x2="-4.99761e-05" y2="3.52067" gradientUnits="userSpaceOnUse">
<stop stop-color="#188BFE"/>
<stop offset="1" stop-color="#188BFE" stop-opacity="0.3"/>
</linearGradient>
<linearGradient id="paint92_linear_20_160" x1="7.05175" y1="3.54541" x2="-4.99761e-05" y2="3.52067" gradientUnits="userSpaceOnUse">
<stop stop-color="#188BFE"/>
<stop offset="1" stop-color="#188BFE" stop-opacity="0.3"/>
</linearGradient>
<linearGradient id="paint93_linear_20_160" x1="7.05175" y1="3.54541" x2="-4.99761e-05" y2="3.52067" gradientUnits="userSpaceOnUse">
<stop stop-color="#188BFE"/>
<stop offset="1" stop-color="#188BFE" stop-opacity="0.3"/>
</linearGradient>
<linearGradient id="paint94_linear_20_160" x1="4.70117" y1="2.36361" x2="-3.33174e-05" y2="2.34711" gradientUnits="userSpaceOnUse">
<stop stop-color="#188BFE"/>
<stop offset="1" stop-color="#188BFE" stop-opacity="0.3"/>
</linearGradient>
<linearGradient id="paint95_linear_20_160" x1="4.70117" y1="2.36361" x2="-3.33174e-05" y2="2.34711" gradientUnits="userSpaceOnUse">
<stop stop-color="#188BFE"/>
<stop offset="1" stop-color="#188BFE" stop-opacity="0.3"/>
</linearGradient>
<linearGradient id="paint96_linear_20_160" x1="4.70117" y1="2.36361" x2="-3.33174e-05" y2="2.34711" gradientUnits="userSpaceOnUse">
<stop stop-color="#188BFE"/>
<stop offset="1" stop-color="#188BFE" stop-opacity="0.3"/>
</linearGradient>
<linearGradient id="paint97_linear_20_160" x1="4.70117" y1="2.36361" x2="-3.33174e-05" y2="2.34711" gradientUnits="userSpaceOnUse">
<stop stop-color="#188BFE"/>
<stop offset="1" stop-color="#188BFE" stop-opacity="0.3"/>
</linearGradient>
<linearGradient id="paint98_linear_20_160" x1="4.70117" y1="2.36361" x2="-3.33174e-05" y2="2.34711" gradientUnits="userSpaceOnUse">
<stop stop-color="#188BFE"/>
<stop offset="1" stop-color="#188BFE" stop-opacity="0.3"/>
</linearGradient>
<linearGradient id="paint99_linear_20_160" x1="4.70117" y1="2.36361" x2="-3.33174e-05" y2="2.34711" gradientUnits="userSpaceOnUse">
<stop stop-color="#188BFE"/>
<stop offset="1" stop-color="#188BFE" stop-opacity="0.3"/>
</linearGradient>
<linearGradient id="paint100_linear_20_160" x1="4.70117" y1="2.36361" x2="-3.33174e-05" y2="2.34711" gradientUnits="userSpaceOnUse">
<stop stop-color="#188BFE"/>
<stop offset="1" stop-color="#188BFE" stop-opacity="0.3"/>
</linearGradient>
<linearGradient id="paint101_linear_20_160" x1="4.70117" y1="2.36361" x2="-3.33174e-05" y2="2.34711" gradientUnits="userSpaceOnUse">
<stop stop-color="#188BFE"/>
<stop offset="1" stop-color="#188BFE" stop-opacity="0.3"/>
</linearGradient>
<linearGradient id="paint102_linear_20_160" x1="7.05175" y1="3.54541" x2="-4.99761e-05" y2="3.52067" gradientUnits="userSpaceOnUse">
<stop stop-color="#188BFE"/>
<stop offset="1" stop-color="#188BFE" stop-opacity="0.3"/>
</linearGradient>
<linearGradient id="paint103_linear_20_160" x1="7.05175" y1="3.54541" x2="-4.99761e-05" y2="3.52067" gradientUnits="userSpaceOnUse">
<stop stop-color="#188BFE"/>
<stop offset="1" stop-color="#188BFE" stop-opacity="0.3"/>
</linearGradient>
<linearGradient id="paint104_linear_20_160" x1="7.05175" y1="3.54541" x2="-4.99761e-05" y2="3.52067" gradientUnits="userSpaceOnUse">
<stop stop-color="#188BFE"/>
<stop offset="1" stop-color="#188BFE" stop-opacity="0.3"/>
</linearGradient>
<linearGradient id="paint105_linear_20_160" x1="7.05175" y1="3.54541" x2="-4.99761e-05" y2="3.52067" gradientUnits="userSpaceOnUse">
<stop stop-color="#188BFE"/>
<stop offset="1" stop-color="#188BFE" stop-opacity="0.3"/>
</linearGradient>
<linearGradient id="paint106_linear_20_160" x1="7.05175" y1="3.54541" x2="-4.99761e-05" y2="3.52067" gradientUnits="userSpaceOnUse">
<stop stop-color="#188BFE"/>
<stop offset="1" stop-color="#188BFE" stop-opacity="0.3"/>
</linearGradient>
</defs>
</svg>
