<svg width="79" height="78" viewBox="0 0 79 78" fill="none" xmlns="http://www.w3.org/2000/svg">
<rect x="0.5" width="78" height="78" rx="20" fill="url(#paint0_linear_7_29)" fill-opacity="0.1"/>
<rect x="1" y="0.5" width="77" height="77" rx="19.5" stroke="#1788F9" stroke-opacity="0.07"/>
<path d="M51.5 35H41.5" stroke="#88C800" stroke-width="2" stroke-linecap="round"/>
<path d="M35.5 21H48.5C49.4288 21 49.8932 21 50.2832 21.0513C52.9756 21.4058 55.0942 23.5244 55.4486 26.2168C55.5 26.6067 55.5 27.0712 55.5 28" stroke="#88C800" stroke-width="2"/>
<path d="M19.5 28.8995C19.5 27.1344 19.5 26.2519 19.6387 25.5168C20.2493 22.2806 22.7806 19.7493 26.0168 19.1387C26.7519 19 27.6344 19 29.3995 19C30.1728 19 30.5595 19 30.9311 19.0348C32.5333 19.1846 34.053 19.8141 35.2919 20.841C35.5792 21.0792 35.8526 21.3527 36.3994 21.8995L37.5 23C39.1316 24.6316 39.9474 25.4473 40.9242 25.9909C41.4608 26.2894 42.0302 26.5252 42.6208 26.6936C43.6958 27 44.8494 27 47.1568 27H47.9042C53.169 27 55.8012 27 57.5124 28.5389C57.6698 28.6805 57.8196 28.8303 57.961 28.9877C59.5 30.6987 59.5 33.3311 59.5 38.5958V43C59.5 50.5424 59.5 54.3138 57.1568 56.6568C54.8138 59 51.0424 59 43.5 59H35.5C27.9575 59 24.1863 59 21.8431 56.6568C19.5 54.3138 19.5 50.5424 19.5 43V28.8995Z" stroke="#188BFE" stroke-width="2"/>
<defs>
<linearGradient id="paint0_linear_7_29" x1="65.5" y1="6" x2="10" y2="68.5" gradientUnits="userSpaceOnUse">
<stop stop-color="white" stop-opacity="0.1"/>
<stop offset="1" stop-color="white" stop-opacity="0.5"/>
</linearGradient>
</defs>
</svg>
