<svg width="79" height="78" viewBox="0 0 79 78" fill="none" xmlns="http://www.w3.org/2000/svg">
<rect x="0.5" width="78" height="78" rx="20" fill="url(#paint0_linear_7_50)" fill-opacity="0.1"/>
<rect x="1" y="0.5" width="77" height="77" rx="19.5" stroke="#1788F9" stroke-opacity="0.07"/>
<path d="M33.5 47C35.2008 48.2606 37.2692 49 39.5 49C41.7308 49 43.7992 48.2606 45.5 47" stroke="#88C800" stroke-width="2" stroke-linecap="round"/>
<path d="M45.5 39C46.6046 39 47.5 37.6569 47.5 36C47.5 34.3431 46.6046 33 45.5 33C44.3954 33 43.5 34.3431 43.5 36C43.5 37.6569 44.3954 39 45.5 39Z" fill="#88C800"/>
<path d="M33.5 39C34.6046 39 35.5 37.6569 35.5 36C35.5 34.3431 34.6046 33 33.5 33C32.3954 33 31.5 34.3431 31.5 36C31.5 37.6569 32.3954 39 33.5 39Z" fill="#88C800"/>
<path d="M19.5 39C19.5 29.5719 19.5 24.8579 22.4289 21.9289C25.3579 19 30.0719 19 39.5 19C48.928 19 53.6422 19 56.571 21.9289C59.5 24.8579 59.5 29.5719 59.5 39C59.5 48.428 59.5 53.1422 56.571 56.071C53.6422 59 48.928 59 39.5 59C30.0719 59 25.3579 59 22.4289 56.071C19.5 53.1422 19.5 48.428 19.5 39Z" stroke="#188BFE" stroke-width="2"/>
<defs>
<linearGradient id="paint0_linear_7_50" x1="65.5" y1="6" x2="10" y2="68.5" gradientUnits="userSpaceOnUse">
<stop stop-color="white" stop-opacity="0.1"/>
<stop offset="1" stop-color="white" stop-opacity="0.5"/>
</linearGradient>
</defs>
</svg>
