<svg width="79" height="78" viewBox="0 0 79 78" fill="none" xmlns="http://www.w3.org/2000/svg">
<rect x="0.5" width="78" height="78" rx="20" fill="url(#paint0_linear_7_40)" fill-opacity="0.1"/>
<rect x="1" y="0.5" width="77" height="77" rx="19.5" stroke="#1788F9" stroke-opacity="0.07"/>
<g clip-path="url(#clip0_7_40)">
<path d="M43.0659 19.5218C43.0659 21.4642 41.4907 23.0406 39.5463 23.0406C37.6006 23.0406 36.0261 21.4641 36.0261 19.5218C36.0261 17.5754 37.6009 16 39.5463 16C41.4904 16 43.0659 17.5754 43.0659 19.5218Z" stroke="#88C800" stroke-width="2"/>
<path d="M39.5464 34.3651L38.8393 33.6581L33.3422 28.1617C32.5034 28.9058 31.9634 29.9139 31.9634 30.756V45.949C31.9634 46.4924 32.4031 46.9321 32.9465 46.9321H32.9496H32.9528H32.9558H32.9589H32.962H32.965H32.968H32.9709H32.9739H32.9768H32.9797H32.9826H32.9854H32.9883H32.9911H32.9939H32.9966H32.9994H33.0021H33.0048H33.0075H33.0101H33.0128H33.0154H33.018H33.0205H33.0231H33.0256H33.0281H33.0306H33.033H33.0355H33.0379H33.0403H33.0427H33.0451H33.0474H33.0497H33.052H33.0543H33.0566H33.0588H33.061H33.0633H33.0654H33.0676H33.0698H33.0719H33.074H33.0761H33.0782H33.0803H33.0823H33.0843H33.0863H33.0883H33.0903H33.0923H33.0942H33.0961H33.098H33.0999H33.1018H33.1037H33.1055H33.1073H33.1091H33.1109H33.1127H33.1145H33.1162H33.118H33.1197H33.1214H33.1231H33.1247H33.1264H33.128H33.1297H33.1313H33.1329H33.1345H33.1361H33.1376H33.1392H33.1407H33.1422H33.1437H33.1452H33.1467H33.1482H33.1497H33.1511H33.1525H33.154H33.1554H33.1568H33.1582H33.1595H33.1609H33.1623H33.1636H33.1649H33.1663H33.1676H33.1689H33.1702H33.1714H33.1727H33.174H33.1752H33.1765H33.1777H33.1789H33.1801H33.1813H33.1825H33.1837H33.1849H33.186H33.1872H33.1883H33.1895H33.1906H33.1917H33.1929H33.194H33.1951H33.1962H33.1972H33.1983H33.1994H33.2005H33.2015H33.2026H33.2036H33.2047H33.2057H33.2067H33.2077H33.2087H33.2098H33.2108H33.2118H33.2128H33.2137H33.2147H33.2157H33.2167H33.2176H33.2186H33.2196H33.2205H33.2215H33.2224H33.2234H33.2243H33.2252H33.2262H33.2271H33.228H33.2289H33.2299H33.2308H33.2317H33.2326H33.2335H33.2344H33.2353H33.2362H33.2371H33.238H33.2389H33.2398H33.2407H33.2416H33.2425H33.2434H33.2443H33.2452H33.2461H33.247H33.2478H33.2487H33.2496H33.2505H33.2514H33.2523H33.2532H33.2541H33.255H33.2559H33.2568H33.2576H33.2585H33.2594H33.2603H33.2612H33.2621H33.2631H33.264H33.2649H33.2658H33.2667H33.2676H33.2685H33.2695H33.2704H33.2713H33.2723H33.2732H33.2741H33.2751H33.276H33.277H33.2779H33.2789H33.2799H33.2808H33.2818H33.2828H33.2838H33.2848H33.2858H33.2868H33.2878H33.2888H33.2898H33.2908H33.2918H33.2929H33.2939H33.295H33.296H33.2971H33.2981H33.2992H33.3003H33.3014H33.3025H33.3036H33.3047H33.3058H33.307H33.3081H33.3092H33.3104H33.3116H33.3127H33.3139H33.3151H33.3163H33.3175H33.3187H33.3199H33.3212H33.3224H33.3237H33.3249H33.3262H33.3275H33.3288H33.3301H33.3314H33.3327H33.3341H33.3354H33.3368H33.3381H33.3395H33.3409H33.3423H33.3437H33.3452H33.3466H33.348H33.3495H33.351H33.3525H33.354H33.3555H33.357H33.3586H33.3601H33.3617H33.3633H33.3649H33.3665H33.3681H33.3697H33.3714H33.3731H33.3747H33.3764H33.3782H33.3799H33.3816H33.3834H33.3851H33.3869H33.3887H33.3905H33.3924H33.3942H33.3961H33.398H33.3999H33.4018H33.4037H33.4057H33.4076H33.4096H33.4116H33.4136H33.4157H33.4177H33.4198H33.4219H33.424H33.4261H33.4282H33.4304H33.4326H33.4348H33.437H33.4392H33.4415H33.4438H33.446H33.4484H33.4507H33.453H33.4554H33.4578H33.4602H33.4626H33.4651H33.4676H33.4701H33.4726H33.4751H33.4777H33.4802H33.4828H33.4855H33.4881H33.4908H33.4935H33.4962H33.4989H33.5016H33.5044H33.5072H33.51H33.5129H33.5157H33.5186H33.5215H33.5245H33.5274H33.5304H33.5334H33.5364H33.5395H33.5426H33.5457H33.5488H33.5519H33.5551H33.5583H33.5615H33.5648H33.5681H33.5714H33.5747H33.5781H33.5814H33.5848H33.5883H33.5917H33.5952H33.5987H33.6022H33.6058H33.6094H33.613H33.6166H33.6203H33.624H33.6277H33.6315H33.6353H33.6391H33.6429H33.6468H33.6507H33.6546H33.6585H33.6625H33.6665H33.6706H33.6746H33.6787H33.6828H33.687H33.6912H33.6954H33.6996H33.7039H33.7082H33.7125H33.7169H33.7213H33.7257H33.7302H33.7347H33.7392H33.7437H33.7483H33.7529H33.7576H33.7622H33.7669H33.7717H33.7765H33.7813H33.7861H33.791H33.7959H33.8008H33.8058H33.8108H33.8158H33.8209H33.826H33.8311H33.8363H33.8415H33.8467H33.852H33.8573H33.8626H33.868H33.8734H33.8788H33.8843H33.8898H33.8954H33.901H33.9066H33.9122H33.9179H33.9237H33.9294H33.9352H33.9411H33.9469H33.9528H33.9588H33.9648H33.9708H33.9768H33.9829H33.9891H33.9952H34.0014H34.0077H34.014H34.0203H34.0266H34.033H34.0395H34.0459H34.0525H34.059H34.0656H34.0722H34.0789H34.0856H34.0924H34.0991H34.106H34.1128H34.1197H34.1267H34.1337H34.1407H34.1478H34.1549H34.162H34.1692H34.1765H34.1837H34.1911H34.1984H34.2058H34.2133H34.2207H34.2283H34.2358H34.2434H34.2511H34.2588H34.2665H34.2743H34.2821H34.29H34.2979H34.3059H34.3138H34.3219H34.33H35.2735L35.3283 47.874L36.0825 60.8315L36.0842 60.8606V60.8897C36.0842 61.5027 36.5811 62.0001 37.1953 62.0001H37.1982H37.2011H37.204H37.2069H37.2098H37.2128H37.2157H37.2187H37.2216H37.2246H37.2276H37.2305H37.2335H37.2365H37.2396H37.2426H37.2456H37.2486H37.2517H37.2548H37.2578H37.2609H37.264H37.2671H37.2702H37.2733H37.2764H37.2796H37.2827H37.2858H37.289H37.2922H37.2953H37.2985H37.3017H37.3049H37.3081H37.3114H37.3146H37.3178H37.3211H37.3243H37.3276H37.3309H37.3342H37.3374H37.3407H37.3441H37.3474H37.3507H37.354H37.3574H37.3607H37.3641H37.3675H37.3708H37.3742H37.3776H37.381H37.3844H37.3878H37.3913H37.3947H37.3982H37.4016H37.4051H37.4085H37.412H37.4155H37.419H37.4225H37.426H37.4295H37.4331H37.4366H37.4401H37.4437H37.4472H37.4508H37.4544H37.458H37.4616H37.4652H37.4688H37.4724H37.476H37.4796H37.4833H37.4869H37.4906H37.4943H37.4979H37.5016H37.5053H37.509H37.5127H37.5164H37.5201H37.5238H37.5276H37.5313H37.5351H37.5388H37.5426H37.5464H37.5501H37.5539H37.5577H37.5615H37.5653H37.5691H37.573H37.5768H37.5806H37.5845H37.5883H37.5922H37.5961H37.5999H37.6038H37.6077H37.6116H37.6155H37.6194H37.6233H37.6273H37.6312H37.6351H37.6391H37.643H37.647H37.651H37.655H37.6589H37.6629H37.6669H37.6709H37.6749H37.679H37.683H37.687H37.6911H37.6951H37.6992H37.7032H37.7073H37.7114H37.7154H37.7195H37.7236H37.7277H37.7318H37.7359H37.7401H37.7442H37.7483H37.7525H37.7566H37.7608H37.7649H37.7691H37.7733H37.7774H37.7816H37.7858H37.79H37.7942H37.7984H37.8027H37.8069H37.8111H37.8154H37.8196H37.8238H37.8281H37.8324H37.8366H37.8409H37.8452H37.8495H37.8538H37.8581H37.8624H37.8667H37.871H37.8753H37.8797H37.884H37.8883H37.8927H37.8971H37.9014H37.9058H37.9101H37.9145H37.9189H37.9233H37.9277H37.9321H37.9365H37.9409H37.9453H37.9498H37.9542H37.9586H37.9631H37.9675H37.972H37.9764H37.9809H37.9854H37.9898H37.9943H37.9988H38.0033H38.0078H38.0123H38.0168H38.0213H38.0259H38.0304H38.0349H38.0394H38.044H38.0485H38.0531H38.0576H38.0622H38.0668H38.0713H38.0759H38.0805H38.0851H38.0897H38.0943H38.0989H38.1035H38.1081H38.1127H38.1174H38.122H38.1266H38.1313H38.1359H38.1406H38.1452H38.1499H38.1545H38.1592H38.1639H38.1686H38.1733H38.1779H38.1826H38.1873H38.192H38.1967H38.2015H38.2062H38.2109H38.2156H38.2204H38.2251H38.2298H38.2346H38.2393H38.2441H38.2488H38.2536H38.2584H38.2632H38.2679H38.2727H38.2775H38.2823H38.2871H38.2919H38.2967H38.3015H38.3063H38.3111H38.3159H38.3208H38.3256H38.3304H38.3353H38.3401H38.345H38.3498H38.3547H38.3595H38.3644H38.3692H38.3741H38.379H38.3839H38.3888H38.3936H38.3985H38.4034H38.4083H38.4132H38.4181H38.423H38.428H38.4329H38.4378H38.4427H38.4477H38.4526H38.4575H38.4625H38.4674H38.4724H38.4773H38.4823H38.4872H38.4922H38.4972H38.5021H38.5071H38.5121H38.5171H38.522H38.527H38.532H38.537H38.542H38.547H38.552H38.557H38.562H38.567H38.5721H38.5771H38.5821H38.5871H38.5922H38.5972H38.6022H38.6073H38.6123H38.6174H38.6224H38.6275H38.6325H38.6376H38.6426H38.6477H38.6528H38.6579H38.6629H38.668H38.6731H38.6782H38.6833H38.6883H38.6934H38.6985H38.7036H38.7087H38.7138H38.7189H38.724H38.7292H38.7343H38.7394H38.7445H38.7496H38.7547H38.7599H38.765H38.7701H38.7753H38.7804H38.7855H38.7907H38.7958H38.801H38.8061H38.8113H38.8164H38.8216H38.8268H38.8319H38.8371H38.8422H38.8474H38.8526H38.8578H38.8629H38.8681H38.8733H38.8785H38.8837H38.8888H38.894H38.8992H38.9044H38.9096H38.9148H38.92H38.9252H38.9304H38.9356H38.9408H38.946H38.9512H38.9564H38.9617H38.9669H38.9721H38.9773H38.9825H38.9878H38.993H38.9982H39.0034H39.0087H39.0139H39.0191H39.0244H39.0296H39.0348H39.0401H39.0453H39.0506H39.0558H39.0611H39.0663H39.0716H39.0768H39.0821H39.0873H39.0926H39.0978H39.1031H39.1084H39.1136H39.1189H39.1241H39.1294H39.1347H39.1399H39.1452H39.1505H39.1557H39.161H39.1663H39.1716H39.1768H39.1821H39.1874H39.1927H39.198H39.2032H39.2085H39.2138H39.2191H39.2244H39.2296H39.2349H39.2402H39.2455H39.2508H39.2561H39.2614H39.2667H39.272H39.2773H39.2826H39.2878H39.2931H39.2984H39.3037H39.309H39.3143H39.3196H39.3249H39.3302H39.3355H39.3408H39.3461H39.3514H39.3567H39.362H39.3673H39.3726H39.3779H39.3833H39.3886H39.3939H39.3992H39.4045H39.4098H39.4151H39.4204H39.4257H39.431H39.4363H39.4416H39.4469H39.4522H39.4575H39.4628H39.4682H39.4735H39.4788H39.4841H39.4894H39.4947H39.5H39.5053H39.5106H39.5159H39.5213H39.5266H39.5319H39.5372H39.5425H39.5478H39.5531H39.5584H39.5637H39.5691H39.5744H39.5797H39.585H39.5903H39.5956H39.6009H39.6062H39.6115H39.6168H39.6221H39.6274H39.6328H39.6381H39.6434H39.6487H39.654H39.6593H39.6646H39.6699H39.6752H39.6805H39.6858H39.6911H39.6964H39.7017H39.707H39.7123H39.7176H39.7229H39.7282H39.7335H39.7388H39.7441H39.7493H39.7546H39.7599H39.7652H39.7705H39.7758H39.7811H39.7864H39.7916H39.7969H39.8022H39.8075H39.8128H39.8181H39.8233H39.8286H39.8339H39.8392H39.8444H39.8497H39.855H39.8602H39.8655H39.8708H39.876H39.8813H39.8866H39.8918H39.8971H39.9024H39.9076H39.9129H39.9181H39.9234H39.9286H39.9339H39.9391H39.9444H39.9496H39.9549H39.9601H39.9653H39.9706H39.9758H39.9811H39.9863H39.9915H39.9968H40.002H40.0072H40.0124H40.0177H40.0229H40.0281H40.0333H40.0385H40.0438H40.049H40.0542H40.0594H40.0646H40.0698H40.075H40.0802H40.0854H40.0906H40.0958H40.101H40.1062H40.1114H40.1166H40.1217H40.1269H40.1321H40.1373H40.1425H40.1476H40.1528H40.158H40.1631H40.1683H40.1735H40.1786H40.1838H40.1889H40.1941H40.1992H40.2044H40.2095H40.2147H40.2198H40.2249H40.2301H40.2352H40.2403H40.2455H40.2506H40.2557H40.2608H40.2659H40.271H40.2762H40.2813H40.2864H40.2915H40.2966H40.3017H40.3068H40.3119H40.3169H40.322H40.3271H40.3322H40.3373H40.3423H40.3474H40.3525H40.3575H40.3626H40.3677H40.3727H40.3778H40.3828H40.3879H40.3929H40.3979H40.403H40.408H40.413H40.4181H40.4231H40.4281H40.4331H40.4381H40.4432H40.4482H40.4532H40.4582H40.4632H40.4682H40.4731H40.4781H40.4831H40.4881H40.4931H40.498H40.503H40.508H40.5129H40.5179H40.5228H40.5278H40.5327H40.5377H40.5426H40.5476H40.5525H40.5574H40.5624H40.5673H40.5722H40.5771H40.582H40.5869H40.5918H40.5967H40.6016H40.6065H40.6114H40.6163H40.6211H40.626H40.6309H40.6358H40.6406H40.6455H40.6503H40.6552H40.66H40.6649H40.6697H40.6745H40.6794H40.6842H40.689H40.6938H40.6986H40.7034H40.7082H40.713H40.7178H40.7226H40.7274H40.7322H40.737H40.7417H40.7465H40.7513H40.756H40.7608H40.7655H40.7703H40.775H40.7797H40.7845H40.7892H40.7939H40.7986H40.8034H40.8081H40.8128H40.8175H40.8222H40.8268H40.8315H40.8362H40.8409H40.8456H40.8502H40.8549H40.8595H40.8642H40.8688H40.8735H40.8781H40.8827H40.8873H40.892H40.8966H40.9012H40.9058H40.9104H40.915H40.9196H40.9242H40.9287H40.9333H40.9379H40.9424H40.947H40.9515H40.9561H40.9606H40.9652H40.9697H40.9742H40.9787H40.9833H40.9878H40.9923H40.9968H41.0013H41.0058H41.0102H41.0147H41.0192H41.0236H41.0281H41.0326H41.037H41.0414H41.0459H41.0503H41.0547H41.0592H41.0636H41.068H41.0724H41.0768H41.0812H41.0855H41.0899H41.0943H41.0987H41.103H41.1074H41.1117H41.1161H41.1204H41.1247H41.1291H41.1334H41.1377H41.142H41.1463H41.1506H41.1549H41.1592H41.1634H41.1677H41.172H41.1762H41.1805H41.1847H41.189H41.1932H41.1974H41.2016H41.2059H41.2101H41.2143H41.2185H41.2226H41.2268H41.231H41.2352H41.2393H41.2435H41.2476H41.2518H41.2559H41.26H41.2642H41.2683H41.2724H41.2765H41.2806H41.2847H41.2888H41.2928H41.2969H41.301H41.305H41.3091H41.3131H41.3171H41.3212H41.3252H41.3292H41.3332H41.3372H41.3412H41.3452H41.3492H41.3531H41.3571H41.361H41.365H41.3689H41.3729H41.3768H41.3807H41.3846H41.3885H41.3924H41.3963H41.4002H41.4041H41.408H41.4118H41.4157H41.4195H41.4234H41.4272H41.431H41.4349H41.4387H41.4425H41.4463H41.4501H41.4538H41.4576H41.4614H41.4651H41.4689H41.4726H41.4764H41.4801H41.4838H41.4875H41.4912H41.4949H41.4986H41.5023H41.506H41.5097H41.5133H41.517H41.5206H41.5242H41.5279H41.5315H41.5351H41.5387H41.5423H41.5459H41.5495H41.553H41.5566H41.5602H41.5637H41.5673H41.5708H41.5743H41.5778H41.5813H41.5848H41.5883H41.5918H41.5953H41.5987H41.6022H41.6056H41.6091H41.6125H41.6159H41.6194H41.6228H41.6262H41.6296H41.6329H41.6363H41.6397H41.643H41.6464H41.6497H41.6531H41.6564H41.6597H41.663H41.6663H41.6696H41.6729H41.6761H41.6794H41.6826H41.6859H41.6891H41.6924H41.6956H41.6988H41.702H41.7052H41.7084H41.7115H41.7147H41.7178H41.721H41.7241H41.7273H41.7304H41.7335H41.7366H41.7397H41.7428H41.7459H41.7489H41.752H41.755H41.7581H41.7611H41.7641H41.7671H41.7701H41.7731H41.7761H41.7791H41.782H41.785H41.7879H41.7909H41.7938H41.7967H41.7996H41.8025H41.8054C42.4182 62.0001 42.9151 61.5034 42.9151 60.8897V60.8606L42.9168 60.8315L43.6716 47.8739L43.7265 46.9321H44.6699L39.5464 34.3651ZM39.5464 34.3651L40.2534 33.658M39.5464 34.3651L40.2534 33.658M40.2534 33.658L46.322 27.5895L45.6148 26.8824M40.2534 33.658L45.6148 26.8824M45.6148 26.8824C46.9733 27.75 48.0358 29.2945 48.0358 30.7559M45.6148 26.8824L44.6699 47.9321H46.0534C47.1483 47.9321 48.0358 47.0447 48.0358 45.949V30.7559M48.0358 30.7559L47.0358 30.7558V30.7559H48.0358ZM45.6125 46.9321H45.6143H45.6161H45.6178H45.6196H45.6213H45.623H45.6247H45.6264H45.628H45.6297H45.6313H45.6329H45.6346H45.6361H45.6377H45.6393H45.6408H45.6424H45.6439H45.6454H45.6469H45.6484H45.6499H45.6514H45.6528H45.6542H45.6557H45.6571H45.6585H45.6599H45.6613H45.6626H45.664H45.6653H45.6667H45.668H45.6693H45.6706H45.6719H45.6732H45.6744H45.6757H45.6769H45.6782H45.6794H45.6806H45.6819H45.6831H45.6843H45.6854H45.6866H45.6878H45.6889H45.6901H45.6912H45.6924H45.6935H45.6946H45.6957H45.6968H45.6979H45.699H45.7001H45.7012H45.7022H45.7033H45.7043H45.7054H45.7064H45.7075H45.7085H45.7095H45.7105H45.7115H45.7125H45.7135H45.7145H45.7155H45.7165H45.7175H45.7185H45.7194H45.7204H45.7213H45.7223H45.7233H45.7242H45.7251H45.7261H45.727H45.728H45.7289H45.7298H45.7307H45.7316H45.7326H45.7335H45.7344H45.7353H45.7362H45.7371H45.738H45.7389H45.7398H45.7407H45.7416H45.7425H45.7434H45.7443H45.7452H45.7461H45.747H45.7479H45.7487H45.7496H45.7505H45.7514H45.7523H45.7532H45.7541H45.755H45.7559H45.7567H45.7576H45.7585H45.7594H45.7603H45.7612H45.7621H45.763H45.7639H45.7648H45.7657H45.7666H45.7676H45.7685H45.7694H45.7703H45.7712H45.7722H45.7731H45.774H45.775H45.7759H45.7768H45.7778H45.7787H45.7797H45.7807H45.7816H45.7826H45.7836H45.7845H45.7855H45.7865H45.7875H45.7885H45.7895H45.7905H45.7915H45.7926H45.7936H45.7946H45.7957H45.7967H45.7978H45.7988H45.7999H45.801H45.802H45.8031H45.8042H45.8053H45.8064H45.8076H45.8087H45.8098H45.811H45.8121H45.8133H45.8144H45.8156H45.8168H45.818H45.8192H45.8204H45.8216H45.8229H45.8241H45.8254H45.8266H45.8279H45.8292H45.8305H45.8318H45.8331H45.8344H45.8357H45.8371H45.8384H45.8398H45.8412H45.8426H45.844H45.8454H45.8468H45.8483H45.8497H45.8512H45.8526H45.8541H45.8556H45.8572H45.8587H45.8602H45.8618H45.8633H45.8649H45.8665H45.8681H45.8697H45.8714H45.873H45.8747H45.8764H45.8781H45.8798H45.8815H45.8832H45.885H45.8868H45.8885H45.8903H45.8922H45.894H45.8958H45.8977H45.8996H45.9015H45.9034H45.9053H45.9073H45.9092H45.9112H45.9132H45.9152H45.9172H45.9193H45.9214H45.9234H45.9255H45.9277H45.9298H45.932H45.9341H45.9363H45.9385H45.9408H45.943H45.9453H45.9476H45.9499H45.9522H45.9546H45.957H45.9593H45.9617H45.9642H45.9666H45.9691H45.9716H45.9741H45.9766H45.9792H45.9818H45.9844H45.987H45.9896H45.9923H45.995H45.9977H46.0004H46.0031H46.0059H46.0087H46.0115H46.0144H46.0172H46.0201H46.023H46.0259H46.0289H46.0319H46.0349H46.0379H46.041H46.044H46.0471H46.0503H46.0534H45.6125ZM45.6125 46.9321H45.6107M45.6125 46.9321H45.6107M45.6107 46.9321H45.6089M45.6107 46.9321H45.6089M45.6089 46.9321H45.6071M45.6089 46.9321H45.6071M45.6071 46.9321H45.6052M45.6071 46.9321H45.6052M45.6052 46.9321H45.6034M45.6052 46.9321H45.6034M45.6034 46.9321H45.6015M45.6034 46.9321H45.6015M45.6015 46.9321H45.5996M45.6015 46.9321H45.5996M45.5996 46.9321H45.5977M45.5996 46.9321H45.5977M45.5977 46.9321H45.5958M45.5977 46.9321H45.5958M45.5958 46.9321H45.5938M45.5958 46.9321H45.5938M45.5938 46.9321H45.5919M45.5938 46.9321H45.5919M45.5919 46.9321H45.5899M45.5919 46.9321H45.5899M45.5899 46.9321H45.5879M45.5899 46.9321H45.5879M45.5879 46.9321H45.5859M45.5879 46.9321H45.5859M45.5859 46.9321H45.5838M45.5859 46.9321H45.5838M45.5838 46.9321H45.5818M45.5838 46.9321H45.5818M45.5818 46.9321H45.5797M45.5818 46.9321H45.5797M45.5797 46.9321H45.5776M45.5797 46.9321H45.5776M45.5776 46.9321H45.5755M45.5776 46.9321H45.5755M45.5755 46.9321H45.5734M45.5755 46.9321H45.5734M45.5734 46.9321H45.5713M45.5734 46.9321H45.5713M45.5713 46.9321H45.5691M45.5713 46.9321H45.5691M45.5691 46.9321H45.5669M45.5691 46.9321H45.5669M45.5669 46.9321H45.5648M45.5669 46.9321H45.5648M45.5648 46.9321H45.5625M45.5648 46.9321H45.5625M45.5625 46.9321H45.5603M45.5625 46.9321H45.5603M45.5603 46.9321H45.5581M45.5603 46.9321H45.5581M45.5581 46.9321H45.5558M45.5581 46.9321H45.5558M45.5558 46.9321H45.5535M45.5558 46.9321H45.5535M45.5535 46.9321H45.5512M45.5535 46.9321H45.5512M45.5512 46.9321H45.5489M45.5512 46.9321H45.5489M45.5489 46.9321H45.5465M45.5489 46.9321H45.5465M45.5465 46.9321H45.5441M45.5465 46.9321H45.5441M45.5441 46.9321H45.5418M45.5441 46.9321H45.5418M45.5418 46.9321H45.5393M45.5418 46.9321H45.5393M45.5393 46.9321H45.5369M45.5393 46.9321H45.5369M45.5369 46.9321H45.5345M45.5369 46.9321H45.5345M45.5345 46.9321H45.532M45.5345 46.9321H45.532M45.532 46.9321H45.5295M45.532 46.9321H45.5295M45.5295 46.9321H45.527M45.5295 46.9321H45.527M45.527 46.9321H45.5245M45.527 46.9321H45.5245M45.5245 46.9321H45.5219M45.5245 46.9321H45.5219M45.5219 46.9321H45.5193M45.5219 46.9321H45.5193M45.5193 46.9321H45.5167M45.5193 46.9321H45.5167M45.5167 46.9321H45.5141M45.5167 46.9321H45.5141M45.5141 46.9321H45.5115M45.5141 46.9321H45.5115M45.5115 46.9321H45.5088M45.5115 46.9321H45.5088M45.5088 46.9321H45.5061M45.5088 46.9321H45.5061M45.5061 46.9321H45.5034M45.5061 46.9321H45.5034M45.5034 46.9321H45.5007M45.5034 46.9321H45.5007M45.5007 46.9321H45.498M45.5007 46.9321H45.498M45.498 46.9321H45.4952M45.498 46.9321H45.4952M45.4952 46.9321H45.4924M45.4952 46.9321H45.4924M45.4924 46.9321H45.4896M45.4924 46.9321H45.4896M45.4896 46.9321H45.4868M45.4896 46.9321H45.4868M45.4868 46.9321H45.4839M45.4868 46.9321H45.4839M45.4839 46.9321H45.481M45.4839 46.9321H45.481M45.481 46.9321H45.4781M45.481 46.9321H45.4781M45.4781 46.9321H45.4752M45.4781 46.9321H45.4752M45.4752 46.9321H45.4722M45.4752 46.9321H45.4722M45.4722 46.9321H45.4692M45.4722 46.9321H45.4692M45.4692 46.9321H45.4662M45.4692 46.9321H45.4662M45.4662 46.9321H45.4632M45.4662 46.9321H45.4632M45.4632 46.9321H45.4602M45.4632 46.9321H45.4602M45.4602 46.9321H45.4571M45.4602 46.9321H45.4571M45.4571 46.9321H45.454M45.4571 46.9321H45.454M45.454 46.9321H45.4509M45.454 46.9321H45.4509M45.4509 46.9321H45.4477M45.4509 46.9321H45.4477M45.4477 46.9321H45.4445M45.4477 46.9321H45.4445M45.4445 46.9321H45.4413M45.4445 46.9321H45.4413M45.4413 46.9321H45.4381M45.4413 46.9321H45.4381M45.4381 46.9321H45.4349M45.4381 46.9321H45.4349M45.4349 46.9321H45.4316M45.4349 46.9321H45.4316M45.4316 46.9321H45.4283M45.4316 46.9321H45.4283M45.4283 46.9321H45.425M45.4283 46.9321H45.425M45.425 46.9321H45.4216M45.425 46.9321H45.4216M45.4216 46.9321H45.4183M45.4216 46.9321H45.4183M45.4183 46.9321H45.4149M45.4183 46.9321H45.4149M45.4149 46.9321H45.4114M45.4149 46.9321H45.4114M45.4114 46.9321H45.408M45.4114 46.9321H45.408M45.408 46.9321H45.4045M45.408 46.9321H45.4045M45.4045 46.9321H45.401M45.4045 46.9321H45.401M45.401 46.9321H45.3975M45.401 46.9321H45.3975M45.3975 46.9321H45.3939M45.3975 46.9321H45.3939M45.3939 46.9321H45.3903M45.3939 46.9321H45.3903M45.3903 46.9321H45.3867M45.3903 46.9321H45.3867M45.3867 46.9321H45.3831M45.3867 46.9321H45.3831M45.3831 46.9321H45.3794M45.3831 46.9321H45.3794M45.3794 46.9321H45.3757M45.3794 46.9321H45.3757M45.3757 46.9321H45.372M45.3757 46.9321H45.372M45.372 46.9321H45.3682M45.372 46.9321H45.3682M45.3682 46.9321H45.3645M45.3682 46.9321H45.3645M45.3645 46.9321H45.3607M45.3645 46.9321H45.3607M45.3607 46.9321H45.3568M45.3607 46.9321H45.3568M45.3568 46.9321H45.353M45.3568 46.9321H45.353M45.353 46.9321H45.3491M45.353 46.9321H45.3491M45.3491 46.9321H45.3451M45.3491 46.9321H45.3451M45.3451 46.9321H45.3412M45.3451 46.9321H45.3412M45.3412 46.9321H45.3372M45.3412 46.9321H45.3372M45.3372 46.9321H45.3332M45.3372 46.9321H45.3332M45.3332 46.9321H45.3292M45.3332 46.9321H45.3292M45.3292 46.9321H45.3251M45.3292 46.9321H45.3251M45.3251 46.9321H45.321M45.3251 46.9321H45.321M45.321 46.9321H45.3169M45.321 46.9321H45.3169M45.3169 46.9321H45.3128M45.3169 46.9321H45.3128M45.3128 46.9321H45.3086M45.3128 46.9321H45.3086M45.3086 46.9321H45.3044M45.3086 46.9321H45.3044M45.3044 46.9321H45.3001M45.3044 46.9321H45.3001M45.3001 46.9321H45.2959M45.3001 46.9321H45.2959M45.2959 46.9321H45.2916M45.2959 46.9321H45.2916M45.2916 46.9321H45.2872M45.2916 46.9321H45.2872M45.2872 46.9321H45.2829M45.2872 46.9321H45.2829M45.2829 46.9321H45.2785M45.2829 46.9321H45.2785M45.2785 46.9321H45.2741M45.2785 46.9321H45.2741M45.2741 46.9321H45.2696M45.2741 46.9321H45.2696M45.2696 46.9321H45.2651M45.2696 46.9321H45.2651M45.2651 46.9321H45.2606M45.2651 46.9321H45.2606M45.2606 46.9321H45.2561M45.2606 46.9321H45.2561M45.2561 46.9321H45.2515M45.2561 46.9321H45.2515M45.2515 46.9321H45.2469M45.2515 46.9321H45.2469M45.2469 46.9321H45.2422M45.2469 46.9321H45.2422M45.2422 46.9321H45.2376M45.2422 46.9321H45.2376M45.2376 46.9321H45.2329M45.2376 46.9321H45.2329M45.2329 46.9321H45.2281M45.2329 46.9321H45.2281M45.2281 46.9321H45.2234M45.2281 46.9321H45.2234M45.2234 46.9321H45.2186M45.2234 46.9321H45.2186M45.2186 46.9321H45.2137M45.2186 46.9321H45.2137M45.2137 46.9321H45.2088M45.2137 46.9321H45.2088M45.2088 46.9321H45.204M45.2088 46.9321H45.204M45.204 46.9321H45.199M45.204 46.9321H45.199M45.199 46.9321H45.1941M45.199 46.9321H45.1941M45.1941 46.9321H45.1891M45.1941 46.9321H45.1891M45.1891 46.9321H45.184M45.1891 46.9321H45.184M45.184 46.9321H45.179M45.184 46.9321H45.179M45.179 46.9321H45.1739M45.179 46.9321H45.1739M45.1739 46.9321H45.1687M45.1739 46.9321H45.1687M45.1687 46.9321H45.1636M45.1687 46.9321H45.1636M45.1636 46.9321H45.1584M45.1636 46.9321H45.1584M45.1584 46.9321H45.1531H45.1584Z" stroke="#188BFE" stroke-width="2"/>
<path d="M38.1946 30.5374L39.5434 31.8862L40.7944 30.636V28.2019H38.1946V30.5374Z" fill="#88C800"/>
<path d="M40.7921 25.6675H38.196V27.3313H40.7921V25.6675Z" fill="#88C800"/>
<path d="M56.7637 25.0288C56.7637 26.6574 55.4463 27.9766 53.8167 27.9766C52.1897 27.9766 50.8703 26.6572 50.8703 25.0288C50.8703 23.4004 52.1897 22.081 53.8167 22.081C55.4463 22.081 56.7637 23.4002 56.7637 25.0288Z" stroke="#88C800" stroke-width="2"/>
<path d="M51.6319 35.1194L53.03 36.5175L53.7371 37.2246L54.4442 36.5176L58.6297 32.3328C58.9897 32.5709 59.327 32.8842 59.6011 33.2428C60.0194 33.79 60.2318 34.3632 60.2318 34.8413C60.2318 34.8414 60.2318 34.8414 60.2318 34.8414V48.1086C60.2318 48.515 59.9042 48.8415 59.5004 48.8415H59.4977H59.495H59.4923H59.4896H59.4869H59.4843H59.4817H59.4791H59.4765H59.4739H59.4714H59.4689H59.4664H59.4639H59.4615H59.459H59.4566H59.4542H59.4518H59.4495H59.4471H59.4448H59.4425H59.4402H59.438H59.4357H59.4335H59.4313H59.4291H59.4269H59.4248H59.4226H59.4205H59.4184H59.4163H59.4143H59.4122H59.4102H59.4082H59.4062H59.4042H59.4023H59.4003H59.3984H59.3965H59.3946H59.3927H59.3908H59.389H59.3871H59.3853H59.3835H59.3817H59.38H59.3782H59.3765H59.3747H59.373H59.3713H59.3696H59.368H59.3663H59.3647H59.3631H59.3615H59.3599H59.3583H59.3567H59.3551H59.3536H59.3521H59.3506H59.3491H59.3476H59.3461H59.3446H59.3432H59.3417H59.3403H59.3389H59.3375H59.3361H59.3347H59.3334H59.332H59.3307H59.3293H59.328H59.3267H59.3254H59.3241H59.3228H59.3216H59.3203H59.3191H59.3178H59.3166H59.3154H59.3142H59.313H59.3118H59.3107H59.3095H59.3083H59.3072H59.3061H59.3049H59.3038H59.3027H59.3016H59.3005H59.2994H59.2984H59.2973H59.2962H59.2952H59.2941H59.2931H59.2921H59.2911H59.29H59.289H59.288H59.2871H59.2861H59.2851H59.2841H59.2832H59.2822H59.2813H59.2803H59.2794H59.2785H59.2775H59.2766H59.2757H59.2748H59.2739H59.273H59.2721H59.2712H59.2703H59.2695H59.2686H59.2677H59.2668H59.266H59.2651H59.2643H59.2634H59.2626H59.2618H59.2609H59.2601H59.2593H59.2584H59.2576H59.2568H59.256H59.2552H59.2544H59.2536H59.2528H59.252H59.2512H59.2504H59.2496H59.2488H59.248H59.2472H59.2464H59.2456H59.2449H59.2441H59.2433H59.2425H59.2417H59.2409H59.2402H59.2394H59.2386H59.2378H59.2371H59.2363H59.2355H59.2347H59.234H59.2332H59.2324H59.2316H59.2308H59.2301H59.2293H59.2285H59.2277H59.2269H59.2261H59.2254H59.2246H59.2238H59.223H59.2222H59.2214H59.2206H59.2198H59.219H59.2182H59.2174H59.2166H59.2157H59.2149H59.2141H59.2133H59.2125H59.2116H59.2108H59.2099H59.2091H59.2083H59.2074H59.2066H59.2057H59.2048H59.204H59.2031H59.2022H59.2013H59.2004H59.1995H59.1986H59.1977H59.1968H59.1959H59.195H59.1941H59.1931H59.1922H59.1913H59.1903H59.1893H59.1884H59.1874H59.1864H59.1854H59.1845H59.1835H59.1825H59.1814H59.1804H59.1794H59.1784H59.1773H59.1763H59.1752H59.1741H59.173H59.172H59.1709H59.1698H59.1687H59.1675H59.1664H59.1653H59.1641H59.163H59.1618H59.1606H59.1594H59.1582H59.157H59.1558H59.1546H59.1534H59.1521H59.1508H59.1496H59.1483H59.147H59.1457H59.1444H59.1431H59.1417H59.1404H59.139H59.1377H59.1363H59.1349H59.1335H59.1321H59.1306H59.1292H59.1277H59.1263H59.1248H59.1233H59.1218H59.1203H59.1187H59.1172H59.1156H59.1141H59.1125H59.1109H59.1093H59.1076H59.106H59.1043H59.1027H59.101H59.0993H59.0976H59.0958H59.0941H59.0923H59.0905H59.0888H59.087H59.0851H59.0833H59.0814H59.0796H59.0777H59.0758H59.0739H59.0719H59.07H59.068H59.066H59.064H59.062H59.06H59.0579H59.0558H59.0538H59.0517H59.0495H59.0474H59.0452H59.0431H59.0409H59.0386H59.0364H59.0342H59.0319H59.0296H59.0273H59.025H59.0226H59.0203H59.0179H59.0155H59.0131H59.0106H59.0082H59.0057H59.0032H59.0007H58.9981H58.9956H58.993H58.9904H58.9877H58.9851H58.9824H58.9797H58.977H58.9743H58.9716H58.9688H58.966H58.9632H58.9603H58.9575H58.9546H58.9517H58.9488H58.9458H58.9428H58.9399H58.9368H58.9338H58.9307H58.9276H58.9245H58.9214H58.9182H58.9151H58.9119H58.9086H58.9054H58.9021H58.8988H58.8955H58.8921H58.8888H58.8854H58.8819H58.8785H58.875H58.8715H58.868H58.8644H58.8609H58.8573H58.8536H58.85H58.8463H58.8426H58.8389H58.8351H58.8313H58.8275H58.8237H58.8198H58.8159H58.812H58.8081H58.8041H58.8001H58.7961H58.792H58.7879H58.7838H58.7797H58.7755H58.7713H58.7671H58.7628H58.7586H58.7543H58.7499H58.7455H58.7412H58.7367H58.7323H58.7278H58.7233H58.7187H58.7142H58.7096H58.7049H58.7003H58.6956H58.6908H58.6861H58.6813H58.6765H58.6717H58.6668H58.6619H58.6569H58.652H58.647H58.6419H58.6369H58.6318H58.6266H58.6215H58.6163H58.6111H58.6058H58.6005H58.5952H58.5898H58.5844H58.579H58.5736H58.5681H58.5626H58.557H58.5514H58.5458H58.5402H58.5345H58.5287H58.523H58.5172H58.5114H58.5055H58.4996H58.4937H58.4877H58.4817H58.4757H58.4696H58.4635H58.4574H58.4512H58.445H58.4388H58.4325H58.4262H58.4198H58.4134H58.407H58.4005H58.394H58.3875H58.3809H58.3743H58.3677H58.361H58.3543H58.3475H58.3407H58.3339H58.327H58.3201H58.3132H58.3062H58.2992H58.2921H57.3486L57.2938 49.7834L56.6352 61.0985L56.6335 61.1275V61.1566C56.6335 61.6223 56.2561 61.9999 55.7902 61.9999H55.7877H55.7851H55.7826H55.7801H55.7775H55.775H55.7724H55.7698H55.7672H55.7646H55.762H55.7594H55.7568H55.7542H55.7516H55.7489H55.7463H55.7436H55.741H55.7383H55.7356H55.7329H55.7302H55.7275H55.7248H55.7221H55.7194H55.7166H55.7139H55.7111H55.7084H55.7056H55.7028H55.7H55.6973H55.6945H55.6916H55.6888H55.686H55.6832H55.6804H55.6775H55.6747H55.6718H55.6689H55.6661H55.6632H55.6603H55.6574H55.6545H55.6516H55.6487H55.6457H55.6428H55.6398H55.6369H55.6339H55.631H55.628H55.625H55.622H55.619H55.616H55.613H55.61H55.607H55.604H55.6009H55.5979H55.5948H55.5918H55.5887H55.5856H55.5826H55.5795H55.5764H55.5733H55.5702H55.5671H55.5639H55.5608H55.5577H55.5545H55.5514H55.5482H55.5451H55.5419H55.5387H55.5355H55.5323H55.5291H55.5259H55.5227H55.5195H55.5163H55.513H55.5098H55.5066H55.5033H55.5H55.4968H55.4935H55.4902H55.4869H55.4836H55.4803H55.477H55.4737H55.4704H55.4671H55.4637H55.4604H55.4571H55.4537H55.4504H55.447H55.4436H55.4402H55.4369H55.4335H55.4301H55.4267H55.4233H55.4198H55.4164H55.413H55.4096H55.4061H55.4027H55.3992H55.3958H55.3923H55.3888H55.3853H55.3819H55.3784H55.3749H55.3714H55.3679H55.3644H55.3608H55.3573H55.3538H55.3502H55.3467H55.3431H55.3396H55.336H55.3325H55.3289H55.3253H55.3217H55.3181H55.3145H55.3109H55.3073H55.3037H55.3001H55.2965H55.2928H55.2892H55.2855H55.2819H55.2782H55.2746H55.2709H55.2672H55.2636H55.2599H55.2562H55.2525H55.2488H55.2451H55.2414H55.2377H55.2339H55.2302H55.2265H55.2227H55.219H55.2153H55.2115H55.2077H55.204H55.2002H55.1964H55.1926H55.1889H55.1851H55.1813H55.1775H55.1737H55.1699H55.166H55.1622H55.1584H55.1546H55.1507H55.1469H55.143H55.1392H55.1353H55.1315H55.1276H55.1237H55.1198H55.1159H55.1121H55.1082H55.1043H55.1004H55.0965H55.0925H55.0886H55.0847H55.0808H55.0768H55.0729H55.069H55.065H55.0611H55.0571H55.0532H55.0492H55.0452H55.0412H55.0373H55.0333H55.0293H55.0253H55.0213H55.0173H55.0133H55.0093H55.0053H55.0013H54.9972H54.9932H54.9892H54.9851H54.9811H54.977H54.973H54.9689H54.9649H54.9608H54.9567H54.9527H54.9486H54.9445H54.9404H54.9363H54.9322H54.9281H54.924H54.9199H54.9158H54.9117H54.9076H54.9035H54.8993H54.8952H54.8911H54.8869H54.8828H54.8786H54.8745H54.8703H54.8662H54.862H54.8578H54.8537H54.8495H54.8453H54.8411H54.8369H54.8327H54.8286H54.8244H54.8202H54.8159H54.8117H54.8075H54.8033H54.7991H54.7949H54.7906H54.7864H54.7822H54.7779H54.7737H54.7694H54.7652H54.7609H54.7567H54.7524H54.7482H54.7439H54.7396H54.7353H54.7311H54.7268H54.7225H54.7182H54.7139H54.7096H54.7053H54.701H54.6967H54.6924H54.6881H54.6838H54.6795H54.6751H54.6708H54.6665H54.6622H54.6578H54.6535H54.6491H54.6448H54.6405H54.6361H54.6318H54.6274H54.623H54.6187H54.6143H54.6099H54.6056H54.6012H54.5968H54.5924H54.5881H54.5837H54.5793H54.5749H54.5705H54.5661H54.5617H54.5573H54.5529H54.5485H54.5441H54.5397H54.5352H54.5308H54.5264H54.522H54.5176H54.5131H54.5087H54.5043H54.4998H54.4954H54.4909H54.4865H54.482H54.4776H54.4731H54.4687H54.4642H54.4598H54.4553H54.4508H54.4464H54.4419H54.4374H54.433H54.4285H54.424H54.4195H54.415H54.4105H54.4061H54.4016H54.3971H54.3926H54.3881H54.3836H54.3791H54.3746H54.3701H54.3656H54.3611H54.3565H54.352H54.3475H54.343H54.3385H54.334H54.3294H54.3249H54.3204H54.3158H54.3113H54.3068H54.3022H54.2977H54.2932H54.2886H54.2841H54.2795H54.275H54.2704H54.2659H54.2613H54.2568H54.2522H54.2477H54.2431H54.2386H54.234H54.2294H54.2249H54.2203H54.2157H54.2112H54.2066H54.202H54.1974H54.1929H54.1883H54.1837H54.1791H54.1746H54.17H54.1654H54.1608H54.1562H54.1516H54.147H54.1424H54.1379H54.1333H54.1287H54.1241H54.1195H54.1149H54.1103H54.1057H54.1011H54.0965H54.0919H54.0873H54.0827H54.078H54.0734H54.0688H54.0642H54.0596H54.055H54.0504H54.0458H54.0411H54.0365H54.0319H54.0273H54.0227H54.0181H54.0134H54.0088H54.0042H53.9996H53.9949H53.9903H53.9857H53.9811H53.9764H53.9718H53.9672H53.9625H53.9579H53.9533H53.9487H53.944H53.9394H53.9348H53.9301H53.9255H53.9209H53.9162H53.9116H53.9069H53.9023H53.8977H53.893H53.8884H53.8838H53.8791H53.8745H53.8698H53.8652H53.8606H53.8559H53.8513H53.8466H53.842H53.8374H53.8327H53.8281H53.8234H53.8188H53.8141H53.8095H53.8049H53.8002H53.7956H53.7909H53.7863H53.7816H53.777H53.7724H53.7677H53.7631H53.7584H53.7538H53.7492H53.7445H53.7399H53.7352H53.7306H53.726H53.7213H53.7167H53.7121H53.7074H53.7028H53.6981H53.6935H53.6889H53.6842H53.6796H53.675H53.6703H53.6657H53.6611H53.6564H53.6518H53.6472H53.6425H53.6379H53.6333H53.6286H53.624H53.6194H53.6147H53.6101H53.6055H53.6009H53.5962H53.5916H53.587H53.5824H53.5777H53.5731H53.5685H53.5639H53.5592H53.5546H53.55H53.5454H53.5408H53.5361H53.5315H53.5269H53.5223H53.5177H53.5131H53.5085H53.5038H53.4992H53.4946H53.49H53.4854H53.4808H53.4762H53.4716H53.467H53.4624H53.4578H53.4532H53.4486H53.444H53.4394H53.4348H53.4302H53.4256H53.421H53.4164H53.4119H53.4073H53.4027H53.3981H53.3935H53.3889H53.3844H53.3798H53.3752H53.3706H53.366H53.3615H53.3569H53.3523H53.3478H53.3432H53.3386H53.3341H53.3295H53.3249H53.3204H53.3158H53.3113H53.3067H53.3022H53.2976H53.2931H53.2885H53.284H53.2794H53.2749H53.2703H53.2658H53.2613H53.2567H53.2522H53.2477H53.2431H53.2386H53.2341H53.2295H53.225H53.2205H53.216H53.2115H53.207H53.2024H53.1979H53.1934H53.1889H53.1844H53.1799H53.1754H53.1709H53.1664H53.1619H53.1574H53.1529H53.1485H53.144H53.1395H53.135H53.1305H53.1261H53.1216H53.1171H53.1126H53.1082H53.1037H53.0992H53.0948H53.0903H53.0859H53.0814H53.077H53.0725H53.0681H53.0636H53.0592H53.0548H53.0503H53.0459H53.0415H53.037H53.0326H53.0282H53.0238H53.0194H53.0149H53.0105H53.0061H53.0017H52.9973H52.9929H52.9885H52.9841H52.9797H52.9753H52.971H52.9666H52.9622H52.9578H52.9534H52.9491H52.9447H52.9403H52.936H52.9316H52.9273H52.9229H52.9186H52.9142H52.9099H52.9055H52.9012H52.8969H52.8925H52.8882H52.8839H52.8795H52.8752H52.8709H52.8666H52.8623H52.858H52.8537H52.8494H52.8451H52.8408H52.8365H52.8322H52.8279H52.8237H52.8194H52.8151H52.8108H52.8066H52.8023H52.7981H52.7938H52.7895H52.7853H52.7811H52.7768H52.7726H52.7683H52.7641H52.7599H52.7557H52.7514H52.7472H52.743H52.7388H52.7346H52.7304H52.7262H52.722H52.7178H52.7136H52.7095H52.7053H52.7011H52.6969H52.6928H52.6886H52.6845H52.6803H52.6761H52.672H52.6679H52.6637H52.6596H52.6555H52.6513H52.6472H52.6431H52.639H52.6349H52.6308H52.6267H52.6226H52.6185H52.6144H52.6103H52.6062H52.6021H52.5981H52.594H52.5899H52.5859H52.5818H52.5778H52.5737H52.5697H52.5656H52.5616H52.5576H52.5536H52.5495H52.5455H52.5415H52.5375H52.5335H52.5295H52.5255H52.5215H52.5175H52.5136H52.5096H52.5056H52.5017H52.4977H52.4937H52.4898H52.4858H52.4819H52.478H52.474H52.4701H52.4662H52.4623H52.4584H52.4544H52.4505H52.4466H52.4427H52.4389H52.435H52.4311H52.4272H52.4234H52.4195H52.4156H52.4118H52.4079H52.4041H52.4003H52.3964H52.3926H52.3888H52.3849H52.3811H52.3773H52.3735H52.3697H52.3659H52.3621H52.3584H52.3546H52.3508H52.3471H52.3433H52.3395H52.3358H52.332H52.3283H52.3246H52.3208H52.3171H52.3134H52.3097H52.306H52.3023H52.2986H52.2949H52.2912H52.2875H52.2839H52.2802H52.2765H52.2729H52.2692H52.2656H52.2619H52.2583H52.2547H52.2511H52.2474H52.2438H52.2402H52.2366H52.233H52.2294H52.2259H52.2223H52.2187H52.2151H52.2116H52.208H52.2045H52.2009H52.1974H52.1939H52.1904H52.1868H52.1833H52.1798H52.1763H52.1728H52.1694H52.1659H52.1624H52.1589H52.1555H52.152H52.1486H52.1451H52.1417H52.1382H52.1348H52.1314H52.128H52.1246H52.1212H52.1178H52.1144H52.111H52.1076H52.1043H52.1009H52.0976H52.0942H52.0909H52.0875H52.0842H52.0809H52.0776H52.0743H52.071H52.0677H52.0644H52.0611H52.0578H52.0545H52.0513H52.048H52.0448H52.0415H52.0383H52.0351H52.0318H52.0286H52.0254H52.0222H52.019H52.0158H52.0126H52.0095H52.0063H52.0031H52H51.9968H51.9937H51.9905H51.9874H51.9843H51.9812H51.9781H51.975H51.9719H51.9688H51.9657H51.9626H51.9596H51.9565H51.9535H51.9504H51.9474H51.9444H51.9413H51.9383H51.9353H51.9323H51.9293H51.9263H51.9234H51.9204H51.9174H51.9145H51.9115H51.9086H51.9057H51.9027H51.8998H51.8969H51.894H51.8911H51.8882H51.8853H51.8825H51.8796H51.8767H51.8739H51.871H51.8682H51.8654H51.8626H51.8597H51.8569H51.8541H51.8514H51.8486H51.8458H51.843H51.8403H51.8375H51.8348H51.832H51.8293H51.8266H51.8239H51.8212H51.8185H51.8158H51.8131H51.8104H51.8078H51.8051H51.8025H51.7998H51.7972H51.7946H51.792H51.7893H51.7867H51.7842H51.7816H51.779H51.7764H51.7739H51.7713H51.7688H51.7662H51.7637C51.2988 61.9999 50.9204 61.6217 50.9204 61.1566V61.1275L50.9187 61.0985L50.2618 49.8124V49.5945C51.1103 48.6202 51.6319 47.3484 51.6319 45.9489V35.1194Z" stroke="#188BFE" stroke-width="2"/>
<path d="M53.7393 34.742L54.9756 33.5065V31.9053H52.6017V33.6044L53.7393 34.742Z" fill="#88C800"/>
<path d="M54.977 30.0215H52.601V31.1135H54.977V30.0215Z" fill="#88C800"/>
<path d="M28.1297 25.0288C28.1297 26.6572 26.8103 27.9766 25.1833 27.9766C23.5537 27.9766 22.2363 26.6575 22.2363 25.0288C22.2363 23.4001 23.5537 22.081 25.1833 22.081C26.8103 22.081 28.1297 23.4005 28.1297 25.0288Z" stroke="#88C800" stroke-width="2"/>
<path d="M27.3682 35.1193V45.949C27.3682 47.3485 27.8898 48.6203 28.7383 49.5946V49.8125L28.0814 61.0986L28.0797 61.1276V61.1567C28.0797 61.6219 27.7014 62 27.2364 62H27.2338H27.2313H27.2288H27.2262H27.2237H27.2211H27.2185H27.2159H27.2133H27.2107H27.2081H27.2055H27.2029H27.2003H27.1976H27.195H27.1923H27.1896H27.187H27.1843H27.1816H27.1789H27.1762H27.1735H27.1708H27.168H27.1653H27.1626H27.1598H27.1571H27.1543H27.1515H27.1487H27.1459H27.1431H27.1403H27.1375H27.1347H27.1319H27.129H27.1262H27.1234H27.1205H27.1176H27.1148H27.1119H27.109H27.1061H27.1032H27.1003H27.0974H27.0944H27.0915H27.0886H27.0856H27.0827H27.0797H27.0767H27.0737H27.0708H27.0678H27.0648H27.0618H27.0587H27.0557H27.0527H27.0497H27.0466H27.0436H27.0405H27.0374H27.0344H27.0313H27.0282H27.0251H27.022H27.0189H27.0158H27.0127H27.0095H27.0064H27.0033H27.0001H26.997H26.9938H26.9906H26.9875H26.9843H26.9811H26.9779H26.9747H26.9715H26.9683H26.965H26.9618H26.9586H26.9553H26.9521H26.9488H26.9456H26.9423H26.939H26.9357H26.9324H26.9291H26.9258H26.9225H26.9192H26.9159H26.9126H26.9092H26.9059H26.9025H26.8992H26.8958H26.8924H26.8891H26.8857H26.8823H26.8789H26.8755H26.8721H26.8687H26.8653H26.8618H26.8584H26.855H26.8515H26.8481H26.8446H26.8412H26.8377H26.8342H26.8307H26.8273H26.8238H26.8203H26.8168H26.8132H26.8097H26.8062H26.8027H26.7991H26.7956H26.7921H26.7885H26.7849H26.7814H26.7778H26.7742H26.7706H26.7671H26.7635H26.7599H26.7563H26.7527H26.749H26.7454H26.7418H26.7381H26.7345H26.7309H26.7272H26.7236H26.7199H26.7162H26.7126H26.7089H26.7052H26.7015H26.6978H26.6941H26.6904H26.6867H26.683H26.6792H26.6755H26.6718H26.668H26.6643H26.6606H26.6568H26.653H26.6493H26.6455H26.6417H26.6379H26.6342H26.6304H26.6266H26.6228H26.619H26.6151H26.6113H26.6075H26.6037H26.5998H26.596H26.5922H26.5883H26.5845H26.5806H26.5767H26.5729H26.569H26.5651H26.5612H26.5573H26.5534H26.5495H26.5456H26.5417H26.5378H26.5339H26.53H26.5261H26.5221H26.5182H26.5142H26.5103H26.5064H26.5024H26.4984H26.4945H26.4905H26.4865H26.4825H26.4786H26.4746H26.4706H26.4666H26.4626H26.4586H26.4546H26.4506H26.4465H26.4425H26.4385H26.4344H26.4304H26.4264H26.4223H26.4183H26.4142H26.4102H26.4061H26.402H26.398H26.3939H26.3898H26.3857H26.3816H26.3775H26.3734H26.3693H26.3652H26.3611H26.357H26.3529H26.3488H26.3446H26.3405H26.3364H26.3322H26.3281H26.3239H26.3198H26.3156H26.3115H26.3073H26.3032H26.299H26.2948H26.2906H26.2864H26.2823H26.2781H26.2739H26.2697H26.2655H26.2613H26.2571H26.2529H26.2486H26.2444H26.2402H26.236H26.2317H26.2275H26.2233H26.219H26.2148H26.2105H26.2063H26.202H26.1978H26.1935H26.1892H26.185H26.1807H26.1764H26.1722H26.1679H26.1636H26.1593H26.155H26.1507H26.1464H26.1421H26.1378H26.1335H26.1292H26.1249H26.1205H26.1162H26.1119H26.1076H26.1032H26.0989H26.0946H26.0902H26.0859H26.0815H26.0772H26.0728H26.0685H26.0641H26.0597H26.0554H26.051H26.0466H26.0423H26.0379H26.0335H26.0291H26.0247H26.0204H26.016H26.0116H26.0072H26.0028H25.9984H25.994H25.9896H25.9851H25.9807H25.9763H25.9719H25.9675H25.9631H25.9586H25.9542H25.9498H25.9453H25.9409H25.9365H25.932H25.9276H25.9231H25.9187H25.9142H25.9098H25.9053H25.9008H25.8964H25.8919H25.8875H25.883H25.8785H25.874H25.8696H25.8651H25.8606H25.8561H25.8516H25.8471H25.8427H25.8382H25.8337H25.8292H25.8247H25.8202H25.8157H25.8112H25.8067H25.8022H25.7976H25.7931H25.7886H25.7841H25.7796H25.7751H25.7705H25.766H25.7615H25.757H25.7524H25.7479H25.7434H25.7388H25.7343H25.7298H25.7252H25.7207H25.7161H25.7116H25.707H25.7025H25.6979H25.6934H25.6888H25.6843H25.6797H25.6752H25.6706H25.666H25.6615H25.6569H25.6523H25.6478H25.6432H25.6386H25.634H25.6295H25.6249H25.6203H25.6157H25.6112H25.6066H25.602H25.5974H25.5928H25.5882H25.5836H25.5791H25.5745H25.5699H25.5653H25.5607H25.5561H25.5515H25.5469H25.5423H25.5377H25.5331H25.5285H25.5239H25.5193H25.5147H25.5101H25.5055H25.5009H25.4962H25.4916H25.487H25.4824H25.4778H25.4732H25.4686H25.4639H25.4593H25.4547H25.4501H25.4455H25.4409H25.4362H25.4316H25.427H25.4224H25.4177H25.4131H25.4085H25.4039H25.3992H25.3946H25.39H25.3853H25.3807H25.3761H25.3715H25.3668H25.3622H25.3576H25.3529H25.3483H25.3437H25.339H25.3344H25.3298H25.3251H25.3205H25.3159H25.3112H25.3066H25.3019H25.2973H25.2927H25.288H25.2834H25.2788H25.2741H25.2695H25.2648H25.2602H25.2556H25.2509H25.2463H25.2417H25.237H25.2324H25.2277H25.2231H25.2184H25.2138H25.2092H25.2045H25.1999H25.1952H25.1906H25.1859H25.1813H25.1767H25.172H25.1674H25.1627H25.1581H25.1535H25.1488H25.1442H25.1395H25.1349H25.1302H25.1256H25.121H25.1163H25.1117H25.1071H25.1024H25.0978H25.0931H25.0885H25.0839H25.0792H25.0746H25.07H25.0653H25.0607H25.0561H25.0514H25.0468H25.0422H25.0375H25.0329H25.0283H25.0237H25.019H25.0144H25.0098H25.0052H25.0005H24.9959H24.9913H24.9867H24.982H24.9774H24.9728H24.9682H24.9636H24.9589H24.9543H24.9497H24.9451H24.9405H24.9359H24.9313H24.9267H24.922H24.9174H24.9128H24.9082H24.9036H24.899H24.8944H24.8898H24.8852H24.8806H24.876H24.8714H24.8668H24.8622H24.8576H24.8531H24.8485H24.8439H24.8393H24.8347H24.8301H24.8255H24.821H24.8164H24.8118H24.8072H24.8026H24.7981H24.7935H24.7889H24.7844H24.7798H24.7752H24.7707H24.7661H24.7615H24.757H24.7524H24.7479H24.7433H24.7387H24.7342H24.7296H24.7251H24.7205H24.716H24.7115H24.7069H24.7024H24.6978H24.6933H24.6888H24.6842H24.6797H24.6752H24.6707H24.6661H24.6616H24.6571H24.6526H24.6481H24.6435H24.639H24.6345H24.63H24.6255H24.621H24.6165H24.612H24.6075H24.603H24.5985H24.594H24.5895H24.5851H24.5806H24.5761H24.5716H24.5671H24.5627H24.5582H24.5537H24.5493H24.5448H24.5403H24.5359H24.5314H24.5269H24.5225H24.518H24.5136H24.5092H24.5047H24.5003H24.4958H24.4914H24.487H24.4825H24.4781H24.4737H24.4693H24.4648H24.4604H24.456H24.4516H24.4472H24.4428H24.4384H24.434H24.4296H24.4252H24.4208H24.4164H24.412H24.4076H24.4033H24.3989H24.3945H24.3901H24.3858H24.3814H24.377H24.3727H24.3683H24.364H24.3596H24.3553H24.3509H24.3466H24.3423H24.3379H24.3336H24.3293H24.3249H24.3206H24.3163H24.312H24.3077H24.3034H24.2991H24.2948H24.2905H24.2862H24.2819H24.2776H24.2733H24.269H24.2647H24.2605H24.2562H24.2519H24.2477H24.2434H24.2391H24.2349H24.2306H24.2264H24.2222H24.2179H24.2137H24.2094H24.2052H24.201H24.1968H24.1926H24.1883H24.1841H24.1799H24.1757H24.1715H24.1673H24.1631H24.159H24.1548H24.1506H24.1464H24.1422H24.1381H24.1339H24.1298H24.1256H24.1214H24.1173H24.1132H24.109H24.1049H24.1007H24.0966H24.0925H24.0884H24.0843H24.0802H24.076H24.0719H24.0678H24.0637H24.0597H24.0556H24.0515H24.0474H24.0433H24.0393H24.0352H24.0311H24.0271H24.023H24.019H24.0149H24.0109H24.0069H24.0028H23.9988H23.9948H23.9908H23.9868H23.9828H23.9788H23.9748H23.9708H23.9668H23.9628H23.9588H23.9549H23.9509H23.9469H23.943H23.939H23.935H23.9311H23.9272H23.9232H23.9193H23.9154H23.9114H23.9075H23.9036H23.8997H23.8958H23.8919H23.888H23.8841H23.8802H23.8764H23.8725H23.8686H23.8648H23.8609H23.857H23.8532H23.8494H23.8455H23.8417H23.8379H23.834H23.8302H23.8264H23.8226H23.8188H23.815H23.8112H23.8074H23.8036H23.7999H23.7961H23.7923H23.7886H23.7848H23.7811H23.7773H23.7736H23.7698H23.7661H23.7624H23.7587H23.755H23.7513H23.7476H23.7439H23.7402H23.7365H23.7328H23.7292H23.7255H23.7218H23.7182H23.7145H23.7109H23.7072H23.7036H23.7H23.6964H23.6927H23.6891H23.6855H23.6819H23.6783H23.6748H23.6712H23.6676H23.664H23.6605H23.6569H23.6534H23.6498H23.6463H23.6427H23.6392H23.6357H23.6322H23.6287H23.6252H23.6217H23.6182H23.6147H23.6112H23.6078H23.6043H23.6008H23.5974H23.5939H23.5905H23.5871H23.5836H23.5802H23.5768H23.5734H23.57H23.5666H23.5632H23.5598H23.5564H23.5531H23.5497H23.5463H23.543H23.5396H23.5363H23.533H23.5296H23.5263H23.523H23.5197H23.5164H23.5131H23.5098H23.5065H23.5033H23.5H23.4967H23.4935H23.4902H23.487H23.4838H23.4805H23.4773H23.4741H23.4709H23.4677H23.4645H23.4613H23.4582H23.455H23.4518H23.4487H23.4455H23.4424H23.4392H23.4361H23.433H23.4299H23.4267H23.4236H23.4206H23.4175H23.4144H23.4113H23.4082H23.4052H23.4021H23.3991H23.3961H23.393H23.39H23.387H23.384H23.381H23.378H23.375H23.372H23.369H23.3661H23.3631H23.3602H23.3572H23.3543H23.3514H23.3485H23.3455H23.3426H23.3397H23.3368H23.334H23.3311H23.3282H23.3254H23.3225H23.3197H23.3168H23.314H23.3112H23.3084H23.3056H23.3028H23.3H23.2972H23.2944H23.2916H23.2889H23.2861H23.2834H23.2807H23.2779H23.2752H23.2725H23.2698H23.2671H23.2644H23.2617H23.2591H23.2564H23.2537H23.2511H23.2484H23.2458H23.2432H23.2406H23.238H23.2354H23.2328H23.2302H23.2276H23.225H23.2225H23.2199H23.2174H23.2149H23.2123H23.2098C22.744 62 22.3666 61.6224 22.3666 61.1567V61.1276L22.3649 61.0986L21.7062 49.7835L21.6514 48.8416H20.7079H20.7008H20.6938H20.6868H20.6799H20.673H20.6661H20.6593H20.6525H20.6457H20.639H20.6323H20.6257H20.6191H20.6125H20.606H20.5995H20.593H20.5866H20.5802H20.5738H20.5675H20.5612H20.555H20.5488H20.5426H20.5365H20.5304H20.5243H20.5183H20.5123H20.5063H20.5004H20.4945H20.4886H20.4828H20.477H20.4713H20.4655H20.4599H20.4542H20.4486H20.443H20.4374H20.4319H20.4264H20.421H20.4156H20.4102H20.4048H20.3995H20.3942H20.389H20.3837H20.3785H20.3734H20.3683H20.3632H20.3581H20.3531H20.3481H20.3431H20.3382H20.3332H20.3284H20.3235H20.3187H20.3139H20.3092H20.3045H20.2998H20.2951H20.2905H20.2859H20.2813H20.2767H20.2722H20.2678H20.2633H20.2589H20.2545H20.2501H20.2458H20.2415H20.2372H20.2329H20.2287H20.2245H20.2204H20.2162H20.2121H20.208H20.204H20.1999H20.1959H20.192H20.188H20.1841H20.1802H20.1764H20.1725H20.1687H20.1649H20.1612H20.1574H20.1537H20.15H20.1464H20.1428H20.1392H20.1356H20.132H20.1285H20.125H20.1216H20.1181H20.1147H20.1113H20.1079H20.1046H20.1012H20.0979H20.0947H20.0914H20.0882H20.085H20.0818H20.0786H20.0755H20.0724H20.0693H20.0662H20.0632H20.0602H20.0572H20.0542H20.0513H20.0483H20.0454H20.0426H20.0397H20.0369H20.034H20.0313H20.0285H20.0257H20.023H20.0203H20.0176H20.0149H20.0123H20.0097H20.0071H20.0045H20.0019H19.9994H19.9969H19.9944H19.9919H19.9894H19.987H19.9846H19.9822H19.9798H19.9774H19.9751H19.9727H19.9704H19.9681H19.9659H19.9636H19.9614H19.9592H19.957H19.9548H19.9527H19.9505H19.9484H19.9463H19.9442H19.9421H19.9401H19.938H19.936H19.934H19.932H19.9301H19.9281H19.9262H19.9243H19.9224H19.9205H19.9186H19.9168H19.9149H19.9131H19.9113H19.9095H19.9077H19.906H19.9042H19.9025H19.9008H19.8991H19.8974H19.8957H19.8941H19.8924H19.8908H19.8892H19.8876H19.886H19.8844H19.8828H19.8813H19.8798H19.8782H19.8767H19.8752H19.8738H19.8723H19.8708H19.8694H19.868H19.8666H19.8652H19.8638H19.8624H19.861H19.8596H19.8583H19.857H19.8556H19.8543H19.853H19.8517H19.8505H19.8492H19.8479H19.8467H19.8455H19.8442H19.843H19.8418H19.8406H19.8394H19.8382H19.8371H19.8359H19.8348H19.8336H19.8325H19.8314H19.8303H19.8292H19.8281H19.827H19.8259H19.8248H19.8238H19.8227H19.8217H19.8207H19.8196H19.8186H19.8176H19.8166H19.8156H19.8146H19.8136H19.8126H19.8117H19.8107H19.8097H19.8088H19.8078H19.8069H19.806H19.805H19.8041H19.8032H19.8023H19.8014H19.8005H19.7996H19.7987H19.7978H19.797H19.7961H19.7952H19.7943H19.7935H19.7926H19.7918H19.7909H19.7901H19.7893H19.7884H19.7876H19.7868H19.7859H19.7851H19.7843H19.7835H19.7827H19.7819H19.7811H19.7803H19.7794H19.7787H19.7779H19.7771H19.7763H19.7755H19.7747H19.7739H19.7731H19.7723H19.7715H19.7708H19.77H19.7692H19.7684H19.7676H19.7669H19.7661H19.7653H19.7645H19.7638H19.763H19.7622H19.7614H19.7607H19.7599H19.7591H19.7583H19.7575H19.7568H19.756H19.7552H19.7544H19.7536H19.7528H19.7521H19.7513H19.7505H19.7497H19.7489H19.7481H19.7473H19.7465H19.7457H19.7449H19.7441H19.7432H19.7424H19.7416H19.7408H19.7399H19.7391H19.7383H19.7374H19.7366H19.7358H19.7349H19.7341H19.7332H19.7323H19.7315H19.7306H19.7297H19.7288H19.728H19.7271H19.7262H19.7253H19.7244H19.7234H19.7225H19.7216H19.7207H19.7197H19.7188H19.7178H19.7169H19.7159H19.7149H19.714H19.713H19.712H19.711H19.71H19.709H19.708H19.7069H19.7059H19.7049H19.7038H19.7028H19.7017H19.7006H19.6995H19.6984H19.6973H19.6962H19.6951H19.694H19.6929H19.6917H19.6906H19.6894H19.6882H19.687H19.6858H19.6846H19.6834H19.6822H19.681H19.6797H19.6785H19.6772H19.6759H19.6746H19.6734H19.672H19.6707H19.6694H19.668H19.6667H19.6653H19.664H19.6626H19.6612H19.6597H19.6583H19.6569H19.6554H19.654H19.6525H19.651H19.6495H19.648H19.6465H19.6449H19.6434H19.6418H19.6402H19.6386H19.637H19.6354H19.6337H19.6321H19.6304H19.6287H19.627H19.6253H19.6236H19.6219H19.6201H19.6183H19.6166H19.6147H19.6129H19.6111H19.6093H19.6074H19.6055H19.6036H19.6017H19.5998H19.5978H19.5959H19.5939H19.5919H19.5899H19.5878H19.5858H19.5837H19.5816H19.5795H19.5774H19.5753H19.5731H19.571H19.5688H19.5666H19.5643H19.5621H19.5598H19.5576H19.5553H19.5529H19.5506H19.5482H19.5459H19.5435H19.5411H19.5386H19.5362H19.5337H19.5312H19.5287H19.5261H19.5236H19.521H19.5184H19.5158H19.5132H19.5105H19.5078H19.5051H19.5024H19.4997C19.0959 48.8416 18.7683 48.5151 18.7683 48.1087V34.8414C18.7683 34.3632 18.9807 33.79 19.3989 33.2428C19.673 32.8842 20.0103 32.571 20.3703 32.3328L24.5558 36.5176L25.2629 37.2246L25.9699 36.5175L27.3682 35.1193Z" stroke="#188BFE" stroke-width="2"/>
<path d="M25.2606 34.742L26.3982 33.6044V31.9053H24.0244V33.5065L25.2606 34.742Z" fill="#88C800"/>
<path d="M26.399 30.0215H24.0229V31.1135H26.399V30.0215Z" fill="#88C800"/>
</g>
<defs>
<linearGradient id="paint0_linear_7_40" x1="65.5" y1="6" x2="10" y2="68.5" gradientUnits="userSpaceOnUse">
<stop stop-color="white" stop-opacity="0.1"/>
<stop offset="1" stop-color="white" stop-opacity="0.5"/>
</linearGradient>
<clipPath id="clip0_7_40">
<rect width="48" height="48" fill="white" transform="translate(15.5 15)"/>
</clipPath>
</defs>
</svg>
