<svg width="56" height="56" viewBox="0 0 56 56" fill="none" xmlns="http://www.w3.org/2000/svg">
<g id="Iconly/Light/Location">
<g id="Location">
<path id="Location_2" fill-rule="evenodd" clip-rule="evenodd" d="M7 23.8439C7 12.4795 16.4966 3.29413 27.9838 3.29413C39.5033 3.29413 49 12.4795 49 23.8439C49 29.5705 46.9173 34.8871 43.4894 39.3933C39.7076 44.364 35.0465 48.6948 29.7999 52.0942C28.5991 52.8799 27.5155 52.9392 26.1976 52.0942C20.9211 48.6948 16.26 44.364 12.5106 39.3933C9.08019 34.8871 7 29.5705 7 23.8439ZM21.0684 24.4838C21.0684 28.2909 24.1749 31.2851 27.9841 31.2851C31.7957 31.2851 34.9322 28.2909 34.9322 24.4838C34.9322 20.7064 31.7957 17.5664 27.9841 17.5664C24.1749 17.5664 21.0684 20.7064 21.0684 24.4838Z" fill="#88C800"/>
</g>
</g>
</svg>
