<svg width="60" height="60" viewBox="0 0 60 60" fill="none" xmlns="http://www.w3.org/2000/svg">
<rect width="60" height="60" rx="20" fill="url(#paint0_linear_137_297)" fill-opacity="0.1"/>
<rect x="0.5" y="0.5" width="59" height="59" rx="19.5" stroke="#1788F9" stroke-opacity="0.07"/>
<path fill-rule="evenodd" clip-rule="evenodd" d="M34 27.6008C34 25.3908 32.2092 23.6 30.0008 23.6C27.7908 23.6 26 25.3908 26 27.6008C26 29.8092 27.7908 31.6 30.0008 31.6C32.2092 31.6 34 29.8092 34 27.6008Z" stroke="#88C800" stroke-width="1.5" stroke-linecap="round" stroke-linejoin="round"/>
<path fill-rule="evenodd" clip-rule="evenodd" d="M29.9992 44.4C28.0817 44.4 18 36.2374 18 27.7012C18 21.0186 23.3714 15.6 29.9992 15.6C36.6271 15.6 42 21.0186 42 27.7012C42 36.2374 31.9168 44.4 29.9992 44.4Z" stroke="#188BFE" stroke-width="1.5" stroke-linecap="round" stroke-linejoin="round"/>
<defs>
<linearGradient id="paint0_linear_137_297" x1="50" y1="4.61538" x2="7.30769" y2="52.6923" gradientUnits="userSpaceOnUse">
<stop stop-color="white" stop-opacity="0.1"/>
<stop offset="1" stop-color="white" stop-opacity="0.5"/>
</linearGradient>
</defs>
</svg>
