<svg width="79" height="78" viewBox="0 0 79 78" fill="none" xmlns="http://www.w3.org/2000/svg">
<rect x="0.5" width="78" height="78" rx="20" fill="url(#paint0_linear_7_61)" fill-opacity="0.1"/>
<rect x="1" y="0.5" width="77" height="77" rx="19.5" stroke="#1788F9" stroke-opacity="0.07"/>
<path d="M39.5 19.5C35.6433 19.5 31.8731 20.6437 28.6664 22.7863C25.4596 24.929 22.9603 27.9745 21.4844 31.5377C20.0084 35.1008 19.6223 39.0216 20.3747 42.8043C21.1271 46.5869 22.9843 50.0615 25.7114 52.7886C28.4386 55.5157 31.9131 57.3729 35.6957 58.1253C39.4784 58.8777 43.3992 58.4916 46.9623 57.0156C50.5255 55.5397 53.571 53.0404 55.7137 49.8336C57.8564 46.6269 59 42.8567 59 39C58.9945 33.83 56.9383 28.8732 53.2826 25.2174C49.6268 21.5617 44.6701 19.5055 39.5 19.5ZM56 39C56.0016 41.1168 55.5942 43.214 54.8 45.1763L46.4188 40.0219C46.0624 39.802 45.6638 39.6595 45.2488 39.6038L40.97 39.0262C40.3804 38.9494 39.7813 39.0482 39.2476 39.3104C38.7139 39.5725 38.2695 39.9864 37.97 40.5H36.335L35.6225 39.0262C35.4255 38.6159 35.1373 38.256 34.7798 37.9743C34.4223 37.6925 34.005 37.4963 33.56 37.4006L32.06 37.0763L33.5263 34.5H36.6594C37.1664 34.499 37.6649 34.37 38.1088 34.125L40.4056 32.8575C40.6074 32.745 40.7961 32.6104 40.9681 32.4562L46.0138 27.8925C46.5196 27.4391 46.8559 26.8269 46.967 26.1568C47.0781 25.4866 46.9575 24.7986 46.625 24.2062L46.5575 24.0844C49.3809 25.4231 51.7667 27.5351 53.438 30.1752C55.1094 32.8153 55.9978 35.8753 56 39ZM42.3706 22.7513L44 25.6688L38.9544 30.2325L36.6594 31.5H33.5263C32.9989 31.4992 32.4807 31.6375 32.0238 31.9008C31.5668 32.1642 31.1874 32.5433 30.9238 33L29.2869 35.8556L27.3838 30.7856L29.435 25.935C31.2506 24.5321 33.3393 23.5239 35.5672 22.975C37.795 22.4261 40.113 22.3486 42.3725 22.7475L42.3706 22.7513ZM23 39C22.9975 36.5475 23.5447 34.1257 24.6013 31.9125L26.7275 37.5881C26.9047 38.058 27.197 38.476 27.5777 38.8036C27.9584 39.1312 28.4152 39.3579 28.9063 39.4631L32.9244 40.3275L33.6388 41.8125C33.8867 42.3176 34.2709 42.7432 34.748 43.0414C35.2251 43.3396 35.7761 43.4985 36.3388 43.5H36.6163L35.2606 46.5431C35.0218 47.079 34.9453 47.6731 35.0406 48.2519C35.1359 48.8308 35.3988 49.369 35.7969 49.8L35.8231 49.8263L39.5 53.6138L39.1363 55.4888C34.8272 55.3885 30.7279 53.6081 27.7132 50.5275C24.6985 47.447 23.0072 43.3102 23 39ZM42.2338 55.2712L42.4456 54.1819C42.5327 53.7191 42.5102 53.2423 42.38 52.7897C42.2498 52.3372 42.0154 51.9214 41.6956 51.5756C41.6864 51.5674 41.6777 51.5586 41.6694 51.5494L38 47.7638L40.5688 42L44.8475 42.5775L53.42 47.85C52.178 49.8004 50.5408 51.4687 48.614 52.747C46.6871 54.0253 44.5136 54.8852 42.2338 55.2712Z" fill="#188BFE"/>
<path d="M55 45C53.5 48.5 51.1448 51.3091 48.5 53C45.8552 54.6909 43.7323 55.472 40.5969 55.6245L39 55.5C39.0442 55.2686 39.0652 55.2264 39 55V54L37.5 51.5C37.3005 51.2846 35.548 49.7896 35.5 49.5C35 49 34.8806 47.2682 35 47L37.7028 41.0805C37.8349 40.7844 38.2167 39.6579 38.5 39.5C38.7833 39.3421 39.6786 38.9565 40 39H43C43.2072 39.0284 46 39.5 46.5 40L55 45ZM40.5 33L41.5 32C41.6017 31.945 42.9149 31.0782 43 31L45 29C45.2511 28.7716 47 27.5 47 26C47 24.5 46.6664 24.2959 46.5 24L42.5 22.5C41.2371 22.2265 39.7922 22.4994 38.5 22.5C35.5 22.5 32.6964 23.3305 29.5 25.9121L26.5 29L24.5 32C24.5 32 24.8652 32.6408 25 33L27 38.1094C27.0886 38.3444 27.3097 38.8362 27.5 39C27.6903 39.1638 28.7545 39.4474 29 39.5L31 40L33 40.5L33.5 42L34.5 43L35.5 43.5L36.5162 43.7265L37.9632 40.5H36.5L35.5 38.5L34 37.5L32.5 37L33.5262 34.5C34 34.5 35.2715 34.6317 35.5 34.5C36 34.5 36.7363 34.4996 37 34.5L37.5 34.5L38.5 34C38.7533 34.0004 40.2788 33.1234 40.5 33Z" fill="#88C800"/>
<defs>
<linearGradient id="paint0_linear_7_61" x1="65.5" y1="6" x2="10" y2="68.5" gradientUnits="userSpaceOnUse">
<stop stop-color="white" stop-opacity="0.1"/>
<stop offset="1" stop-color="white" stop-opacity="0.5"/>
</linearGradient>
</defs>
</svg>
